<svg width="377" height="379" viewBox="0 0 377 379" fill="none" xmlns="http://www.w3.org/2000/svg">
<g opacity="0.1">
<path d="M168.289 369.883C166.638 360.567 158.195 356.299 155.672 352.903C148.102 342.716 143.055 335.924 135.485 325.736C122.868 308.757 112.774 295.173 100.158 278.194C100.158 278.194 100.158 278.194 99.2845 284.114C116.266 271.495 129.852 261.4 146.834 248.781C146.834 248.781 146.834 248.781 140.914 247.909C163.624 278.472 189.731 306.511 206.522 336.202C206.522 336.202 206.522 336.202 207.395 330.282C197.206 337.854 187.017 345.425 176.827 352.996C173.431 355.52 170.035 358.043 166.638 360.567C171.685 367.359 168.289 369.883 168.289 369.883C174.208 370.755 168.289 369.883 168.289 369.883C177.605 368.231 181.001 365.707 184.398 363.184C194.587 355.612 204.776 348.041 214.965 340.47C214.965 340.47 218.361 337.946 215.838 334.55C193.128 303.987 170.417 273.424 150.23 246.257C150.23 246.257 147.707 242.862 144.31 245.385C127.328 258.004 113.743 268.099 96.7612 280.718C96.7612 280.718 93.3648 283.241 95.8882 286.637C105.982 300.221 118.599 317.2 128.692 330.784C136.262 340.971 141.309 347.763 148.879 357.951C154.799 358.823 162.369 369.011 168.289 369.883Z" fill="#3AB67D"/>
<path d="M239.612 316.884C201.762 265.946 163.911 215.008 128.584 167.466C128.584 167.466 128.584 167.466 127.711 173.385C144.693 160.766 165.071 145.624 182.053 133.005C182.053 133.005 182.053 133.005 176.133 132.133C213.984 183.071 249.311 230.614 287.162 281.552C287.162 281.552 287.162 281.552 288.035 275.632C277.845 283.203 271.053 288.251 260.864 295.822C254.071 300.87 247.278 305.917 243.882 308.441C240.485 310.965 243.009 314.36 239.612 316.884C239.612 316.884 243.009 314.36 245.532 317.756C252.325 312.709 255.721 310.185 262.514 305.138C272.703 297.566 282.892 289.995 289.685 284.948C289.685 284.948 293.081 282.424 290.558 279.028C252.707 228.09 217.38 180.548 179.529 129.61C179.529 129.61 177.006 126.214 173.61 128.737C156.628 141.356 136.25 156.499 119.268 169.117C119.268 169.117 115.871 171.641 118.395 175.037C156.245 225.975 194.096 276.913 232.82 321.932C236.216 319.408 243.009 314.36 239.612 316.884Z" fill="#3AB67D"/>
<path d="M155.361 47.4211C174.866 38.1983 192.721 19.6599 209.703 7.04122C209.703 7.04122 209.703 7.04128 203.783 6.16915C254.25 74.0867 307.241 145.4 357.709 213.317L358.582 207.398C341.6 220.017 323.745 238.555 304.24 247.778C304.24 247.778 306.763 251.174 310.16 248.65C287.449 218.087 264.739 187.524 242.029 156.961C224.365 133.19 206.701 109.419 189.038 85.6479C181.468 75.4603 171.374 61.8767 155.361 47.4211C162.058 63.5284 174.675 80.5078 187.292 97.4871C204.955 121.258 222.619 145.029 240.283 168.8C262.993 199.363 285.703 229.926 308.414 260.489C308.414 260.489 310.937 263.885 314.333 261.361C331.315 248.743 351.693 233.6 368.675 220.981C368.675 220.981 372.072 218.458 369.548 215.062C319.081 147.144 266.09 75.8309 215.622 7.91338C215.622 7.91338 213.099 4.51748 209.703 7.04122C190.197 16.2641 173.216 28.8828 155.361 47.4211Z" fill="#3AB67D"/>
<path d="M163.241 363.092C163.241 363.092 165.764 366.488 163.241 363.092C165.764 366.488 169.16 363.964 169.16 363.964L175.08 364.836C175.08 364.836 175.08 364.836 169.16 363.964C169.16 363.964 169.16 363.964 163.241 363.092C169.16 363.964 166.637 360.569 163.241 363.092Z" fill="#3AB67D"/>
<path d="M166.64 360.566L172.56 361.438L178.479 362.311C178.479 362.311 178.479 362.311 172.56 361.438C172.56 361.438 172.56 361.438 166.64 360.566C170.036 358.043 170.036 358.043 166.64 360.566Z" fill="#3AB67D"/>
<path d="M170.035 358.043C172.559 361.439 175.955 358.915 178.478 362.311L184.398 363.183L178.478 362.311C173.432 355.519 173.432 355.519 170.035 358.043C167.512 354.647 167.512 354.647 170.035 358.043Z" fill="#3AB67D"/>
<path d="M174.303 349.6C174.303 349.6 176.827 352.996 174.303 349.6C180.223 350.472 180.223 350.472 182.746 353.868C185.27 357.264 188.666 354.74 191.19 358.136C191.19 358.136 194.586 355.613 191.19 358.136C188.666 354.74 185.27 357.264 179.35 356.392C180.223 350.472 174.303 349.6 174.303 349.6C174.303 349.6 170.907 352.124 174.303 349.6Z" fill="#3AB67D"/>
<path d="M175.176 343.682C181.096 344.554 181.096 344.554 187.015 345.426C189.539 348.822 192.935 346.298 195.459 349.694C195.459 349.694 192.935 346.298 189.539 348.822L183.619 347.95C181.096 344.554 181.096 344.554 175.176 343.682Z" fill="#3AB67D"/>
<path d="M178.575 341.156C184.495 342.028 184.495 342.028 190.414 342.9C196.334 343.772 198.858 347.168 202.254 344.644C199.731 341.248 196.334 343.772 196.334 343.772L190.414 342.9C185.368 336.108 179.448 335.236 178.575 341.156Z" fill="#3AB67D"/>
<path d="M179.447 335.236C185.367 336.109 191.286 336.981 193.81 340.377C199.73 341.249 202.253 344.645 211.569 342.993C209.046 339.597 199.73 341.249 197.206 337.853C192.159 331.061 186.24 330.189 179.447 335.236C180.32 329.317 179.447 335.236 179.447 335.236Z" fill="#3AB67D"/>
<path d="M183.716 326.795C189.635 327.667 195.555 328.539 198.078 331.935C203.998 332.807 206.522 336.203 209.918 333.679C207.395 330.283 201.475 329.411 195.555 328.539C193.032 325.143 187.112 324.271 183.716 326.795C183.716 326.795 180.319 329.318 183.716 326.795Z" fill="#3AB67D"/>
<path d="M178.668 320.002C184.588 320.875 190.508 321.747 190.508 321.747C196.427 322.619 198.951 326.015 202.347 323.491C199.824 320.095 193.904 319.223 190.508 321.747C190.508 321.747 184.588 320.875 178.668 320.002C182.065 317.479 178.668 320.002 178.668 320.002Z" fill="#3AB67D"/>
<path d="M179.54 314.083C182.064 317.479 185.46 314.956 187.983 318.352C191.38 315.828 197.3 316.7 197.3 316.7C197.3 316.7 200.696 314.176 197.3 316.7C194.776 313.304 191.38 315.828 188.856 312.432C188.856 312.432 182.937 311.56 179.54 314.083Z" fill="#3AB67D"/>
<path d="M180.417 308.162L186.336 309.034C186.336 309.034 188.86 312.43 192.256 309.906C192.256 309.906 192.256 309.906 198.176 310.778L201.572 308.254C199.049 304.858 195.652 307.382 193.129 303.986C183.813 305.638 181.29 302.242 180.417 308.162C180.417 308.162 177.893 304.766 180.417 308.162Z" fill="#3AB67D"/>
<path d="M178.765 298.847C181.289 302.243 181.289 302.243 178.765 298.847C184.685 299.719 184.685 299.719 187.208 303.115C187.208 303.115 190.605 300.591 187.208 303.115C187.208 303.115 184.685 299.719 181.289 302.243C184.685 299.719 178.765 298.847 178.765 298.847Z" fill="#3AB67D"/>
<path d="M176.242 295.451L182.162 296.323C185.558 293.799 182.162 296.323 176.242 295.451C179.638 292.927 179.638 292.927 176.242 295.451Z" fill="#3AB67D"/>
<path d="M173.719 292.055C173.719 292.055 179.638 292.927 173.719 292.055C179.638 292.927 182.162 296.323 179.638 292.927C183.035 290.403 177.115 289.531 173.719 292.055C177.115 289.531 173.719 292.055 173.719 292.055Z" fill="#3AB67D"/>
<path d="M234.567 310.092L240.487 310.964L246.407 311.836C246.407 311.836 249.803 309.312 246.407 311.836C243.883 308.44 240.487 310.964 240.487 310.964C237.964 307.568 235.44 304.172 234.567 310.092Z" fill="#3AB67D"/>
<path d="M235.439 304.172L241.359 305.044L247.279 305.916C247.279 305.916 247.279 305.916 241.359 305.044L235.439 304.172C238.836 301.648 238.836 301.648 235.439 304.172C238.836 301.648 235.439 304.172 235.439 304.172Z" fill="#3AB67D"/>
<path d="M239.707 295.73C242.231 299.126 245.627 296.603 251.547 297.475C254.943 294.951 257.467 298.347 260.863 295.823C260.863 295.823 264.259 293.299 258.34 292.427C255.816 289.031 252.42 291.555 249.024 294.079C245.627 296.603 242.231 299.126 239.707 295.73Z" fill="#3AB67D"/>
<path d="M240.58 289.811C243.103 293.207 249.023 294.079 252.419 291.555C255.816 289.032 258.339 292.428 261.735 289.904L267.655 290.776C265.132 287.38 258.339 292.428 255.816 289.032C252.419 291.555 249.896 288.16 246.5 290.683C243.103 293.207 240.58 289.811 240.58 289.811Z" fill="#3AB67D"/>
<path d="M243.979 287.285C249.898 288.157 255.818 289.029 261.738 289.901C265.134 287.377 267.658 290.773 271.054 288.249C271.054 288.249 276.974 289.122 274.45 285.726C274.45 285.726 274.45 285.726 268.531 284.854C265.134 287.377 262.611 283.981 259.215 286.505C253.295 285.633 247.375 284.761 243.979 287.285C243.979 287.285 241.455 283.889 243.979 287.285Z" fill="#3AB67D"/>
<path d="M242.328 277.97C248.248 278.842 254.167 279.714 260.087 280.586C266.007 281.458 271.927 282.33 281.243 280.679C281.243 280.679 284.639 278.155 281.243 280.679C275.323 279.807 269.403 278.935 263.483 278.062C254.167 279.714 248.248 278.842 242.328 277.97Z" fill="#3AB67D"/>
<path d="M243.2 272.051C245.723 275.447 257.563 277.191 263.483 278.063C269.402 278.935 269.402 278.935 275.322 279.807C275.322 279.807 281.242 280.68 284.638 278.156L278.719 277.284C272.799 276.411 269.402 278.935 263.483 278.063C258.436 271.271 252.516 270.399 243.2 272.051Z" fill="#3AB67D"/>
<path d="M244.072 266.132C249.992 267.004 255.912 267.876 261.831 268.748C267.751 269.62 273.671 270.492 282.987 268.841C282.987 268.841 286.383 266.317 282.987 268.841C277.067 267.969 267.751 269.62 261.831 268.748C255.912 267.876 247.469 263.608 244.072 266.132Z" fill="#3AB67D"/>
<path d="M244.945 260.213C256.784 261.957 266.1 260.305 277.94 262.05C277.94 262.05 281.336 259.526 277.94 262.05C275.416 258.654 266.1 260.305 266.1 260.305C260.18 259.433 254.261 258.561 244.945 260.213Z" fill="#3AB67D"/>
<path d="M245.821 254.291C251.74 255.163 257.66 256.035 257.66 256.035C263.58 256.907 269.5 257.779 272.896 255.256C272.896 255.256 276.292 252.732 272.896 255.256C266.976 254.384 261.056 253.511 257.66 256.035C255.137 252.639 249.217 251.767 245.821 254.291C245.821 254.291 243.297 250.895 245.821 254.291Z" fill="#3AB67D"/>
<path d="M244.169 244.976C246.693 248.372 252.612 249.244 256.009 246.721C261.929 247.593 265.325 245.069 267.848 248.465C267.848 248.465 271.245 245.941 267.848 248.465C261.929 247.593 258.532 250.116 256.009 246.721C250.089 245.848 246.693 248.372 244.169 244.976Z" fill="#3AB67D"/>
<path d="M244.169 244.976C246.692 248.372 250.089 245.848 252.612 249.244L258.532 250.116L264.452 250.988C264.452 250.988 267.848 248.464 264.452 250.988L258.532 250.116L252.612 249.244C250.962 239.928 241.646 241.58 244.169 244.976Z" fill="#3AB67D"/>
<path d="M242.518 235.661C242.518 235.661 245.042 239.057 242.518 235.661C248.438 236.533 248.438 236.533 250.962 239.929L256.881 240.801C256.881 240.801 262.801 241.673 260.278 238.278C260.278 238.278 260.278 238.278 254.358 237.405L248.438 236.533C248.438 236.533 248.438 236.533 242.518 235.661C245.915 233.137 242.518 235.661 242.518 235.661Z" fill="#3AB67D"/>
<path d="M243.391 229.742C245.914 233.138 249.31 230.614 249.31 230.614C249.31 230.614 249.31 230.614 255.23 231.487C255.23 231.487 255.23 231.486 261.15 232.359C258.627 228.963 255.23 231.487 255.23 231.487C249.31 230.614 243.391 229.742 243.391 229.742Z" fill="#3AB67D"/>
<path d="M240.867 226.346C243.391 229.742 246.787 227.219 240.867 226.346C246.787 227.219 252.707 228.091 252.707 228.091L246.787 227.219C244.264 223.823 244.264 223.823 240.867 226.346Z" fill="#3AB67D"/>
<path d="M238.344 222.951C241.74 220.427 244.264 223.823 238.344 222.951C244.264 223.823 250.183 224.695 250.183 224.695L244.264 223.823C241.74 220.427 241.74 220.427 238.344 222.951Z" fill="#3AB67D"/>
<path d="M235.82 219.554C239.217 217.03 239.217 217.03 235.82 219.554C241.74 220.426 244.263 223.822 247.66 221.298C242.613 214.507 242.613 214.507 235.82 219.554C239.217 217.03 236.693 213.635 235.82 219.554C233.297 216.158 233.297 216.158 235.82 219.554Z" fill="#3AB67D"/>
<path d="M236.692 213.635C242.612 214.507 242.612 214.507 242.612 214.507C240.089 211.111 237.565 207.715 236.692 213.635C236.692 213.635 234.169 210.239 236.692 213.635Z" fill="#3AB67D"/>
<path d="M231.646 206.843C234.169 210.239 234.169 210.239 231.646 206.843C237.565 207.716 237.565 207.716 237.565 207.716C237.565 207.716 235.042 204.32 231.646 206.843Z" fill="#3AB67D"/>
<path d="M229.122 203.448C231.646 206.843 231.646 206.843 229.122 203.448C235.042 204.32 235.042 204.32 232.519 200.924C232.519 200.924 232.519 200.924 229.122 203.448Z" fill="#3AB67D"/>
<path d="M229.122 203.448C232.519 200.924 232.519 200.924 229.122 203.448C235.042 204.32 232.519 200.924 232.519 200.924C229.995 197.528 229.995 197.528 229.122 203.448C229.995 197.528 226.599 200.052 229.122 203.448Z" fill="#3AB67D"/>
<path d="M310.158 248.651C312.681 252.047 316.078 249.523 310.158 248.651C316.078 249.523 318.601 252.919 321.997 250.395L316.078 249.523C313.554 246.127 313.554 246.127 310.158 248.651Z" fill="#3AB67D"/>
<path d="M313.553 246.127L319.473 247L325.393 247.872C325.393 247.872 325.393 247.872 319.473 247C319.473 247 319.473 247 313.553 246.127C316.95 243.604 316.95 243.604 313.553 246.127Z" fill="#3AB67D"/>
<path d="M314.43 240.206C316.954 243.602 320.35 241.078 320.35 241.078L326.27 241.95C326.27 241.95 329.666 239.427 323.746 238.555C320.35 241.078 317.827 237.682 314.43 240.206C320.35 241.078 314.43 240.206 314.43 240.206Z" fill="#3AB67D"/>
<path d="M315.302 234.287C317.826 237.683 321.222 235.159 327.142 236.031C333.062 236.904 333.062 236.904 336.458 234.38C330.538 233.508 330.538 233.508 324.618 232.636C321.222 235.159 315.302 234.287 315.302 234.287Z" fill="#3AB67D"/>
<path d="M318.697 231.764L324.617 232.636C330.537 233.508 336.457 234.38 342.376 235.252C342.376 235.252 345.773 232.728 339.853 231.856C333.933 230.984 325.49 226.716 318.697 231.764C318.697 231.764 316.174 228.368 318.697 231.764Z" fill="#3AB67D"/>
<path d="M319.57 225.844C325.49 226.716 331.409 227.589 337.329 228.461C343.249 229.333 349.169 230.205 355.088 231.077C355.088 231.077 358.485 228.553 355.088 231.077C349.169 230.205 343.249 229.333 337.329 228.461C328.886 224.193 322.966 223.321 319.57 225.844C319.57 225.844 317.046 222.448 319.57 225.844Z" fill="#3AB67D"/>
<path d="M320.442 219.925C322.965 223.321 332.281 221.67 338.201 222.542C344.121 223.414 344.121 223.414 350.041 224.286C353.437 221.762 355.96 225.158 359.357 222.634C356.833 219.239 353.437 221.762 350.041 224.286C344.121 223.414 344.121 223.414 338.201 222.542C329.758 218.274 323.838 217.402 320.442 219.925Z" fill="#3AB67D"/>
<path d="M318.795 210.608C324.714 211.48 333.157 215.748 339.077 216.62C344.997 217.492 356.836 219.236 360.233 216.713C360.233 216.713 363.629 214.189 360.233 216.713C354.313 215.841 344.997 217.492 336.554 213.224C334.03 209.828 324.714 211.48 318.795 210.608Z" fill="#3AB67D"/>
<path d="M319.667 204.689C328.11 208.957 334.03 209.829 343.346 208.177C349.266 209.049 355.186 209.921 364.502 208.27C364.502 208.27 367.898 205.746 364.502 208.27C358.582 207.398 352.662 206.526 346.742 205.653C337.426 207.305 328.983 203.037 319.667 204.689Z" fill="#3AB67D"/>
<path d="M320.539 198.77C326.459 199.642 338.298 201.386 344.218 202.258C350.138 203.13 356.058 204.002 361.977 204.875C361.977 204.875 359.454 201.479 356.058 204.002C350.138 203.13 350.138 203.13 344.218 202.258C335.775 197.99 326.459 199.642 320.539 198.77Z" fill="#3AB67D"/>
<path d="M321.411 192.851C323.935 196.247 327.331 193.723 327.331 193.723C333.251 194.595 333.251 194.595 339.171 195.467C345.09 196.339 351.01 197.211 354.406 194.688C351.883 191.292 342.567 192.943 339.171 195.467C333.251 194.595 333.251 194.595 327.331 193.723C324.808 190.327 321.411 192.851 321.411 192.851Z" fill="#3AB67D"/>
<path d="M316.365 186.059C318.888 189.455 328.204 187.803 328.204 187.803C331.6 185.28 334.124 188.675 337.52 186.152C340.917 183.628 343.44 187.024 343.44 187.024C340.917 183.628 334.997 182.756 331.6 185.28C328.204 187.803 325.681 184.407 322.284 186.931C322.284 186.931 319.761 183.535 316.365 186.059Z" fill="#3AB67D"/>
<path d="M317.237 180.14L323.157 181.012L329.077 181.885C334.997 182.757 337.52 186.153 340.916 183.629C340.916 183.629 344.313 181.105 338.393 180.233C334.997 182.757 332.473 179.361 326.554 178.489C326.554 178.489 318.11 174.221 317.237 180.14Z" fill="#3AB67D"/>
<path d="M315.59 170.822C318.113 174.218 321.509 171.695 327.429 172.567L333.349 173.439L339.269 174.311C336.745 170.915 333.349 173.439 327.429 172.567C321.509 171.695 318.986 168.299 315.59 170.822Z" fill="#3AB67D"/>
<path d="M313.066 167.427C315.59 170.822 318.986 168.299 318.986 168.299C324.906 169.171 324.906 169.171 330.826 170.043C330.826 170.043 334.222 167.519 330.826 170.043C324.906 169.171 324.906 169.171 318.986 168.299C319.859 162.379 316.463 164.903 313.066 167.427Z" fill="#3AB67D"/>
<path d="M311.416 158.112C313.939 161.507 317.335 158.984 317.335 158.984C317.335 158.984 323.255 159.856 326.651 157.332C324.128 153.936 320.732 156.46 320.732 156.46C317.335 158.984 311.416 158.112 311.416 158.112Z" fill="#3AB67D"/>
<path d="M308.892 154.716L314.812 155.588L320.732 156.46C320.732 156.46 320.732 156.46 314.812 155.588C314.812 155.588 314.812 155.588 308.892 154.716C314.812 155.588 312.289 152.192 308.892 154.716Z" fill="#3AB67D"/>
<path d="M309.764 148.796C309.764 148.796 312.287 152.192 315.684 149.668L321.603 150.54C315.684 149.668 315.684 149.668 309.764 148.796Z" fill="#3AB67D"/>
<path d="M304.717 142.004C307.24 145.4 307.24 145.4 304.717 142.004C310.637 142.877 313.16 146.272 313.16 146.272C313.16 146.272 316.557 143.749 313.16 146.272C313.16 146.272 310.637 142.876 307.24 145.4C310.637 142.876 308.113 139.481 304.717 142.004Z" fill="#3AB67D"/>
<path d="M302.194 138.609C302.194 138.609 308.114 139.481 302.194 138.609C308.114 139.481 310.637 142.877 310.637 142.877L304.717 142.004C305.59 136.085 305.59 136.085 302.194 138.609Z" fill="#3AB67D"/>
<path d="M299.67 135.213C299.67 135.213 308.114 139.481 308.987 133.561C308.987 133.561 306.463 130.165 303.067 132.689C303.067 132.689 303.067 132.689 299.67 135.213Z" fill="#3AB67D"/>
<path d="M300.543 129.294C303.066 132.69 306.462 130.166 306.462 130.166C303.939 126.77 303.939 126.77 300.543 129.294C300.543 129.294 298.019 125.898 300.543 129.294C300.543 129.294 298.019 125.898 300.543 129.294Z" fill="#3AB67D"/>
<path d="M295.496 122.502C298.019 125.898 298.019 125.898 295.496 122.502C298.019 125.898 301.416 123.374 301.416 123.374L295.496 122.502Z" fill="#3AB67D"/>
<path d="M292.973 119.106C295.496 122.502 295.496 122.502 292.973 119.106C298.892 119.978 298.892 119.978 298.892 119.978L292.973 119.106Z" fill="#3AB67D"/>
<path d="M290.449 115.71C290.449 115.71 292.973 119.106 290.449 115.71C292.973 119.106 292.973 119.106 290.449 115.71C296.369 116.583 296.369 116.583 296.369 116.583L290.449 115.71Z" fill="#3AB67D"/>
<path d="M112.773 295.174C115.296 298.57 118.693 296.047 118.693 296.047C115.296 298.57 118.693 296.047 112.773 295.174C116.169 292.651 116.169 292.651 112.773 295.174C110.25 291.779 110.25 291.779 112.773 295.174Z" fill="#3AB67D"/>
<path d="M107.726 288.383C110.249 291.778 110.249 291.778 107.726 288.383C110.249 291.778 116.169 292.65 116.169 292.65C113.646 289.255 113.646 289.255 107.726 288.383C111.123 285.859 107.726 288.383 107.726 288.383Z" fill="#3AB67D"/>
<path d="M102.679 281.591C102.679 281.591 105.203 284.987 108.599 282.463L114.519 283.335C114.519 283.335 111.996 279.939 108.599 282.463C108.599 282.463 105.203 284.987 102.679 281.591Z" fill="#3AB67D"/>
<path d="M106.079 279.065C106.079 279.065 108.602 282.461 111.998 279.937C111.998 279.937 114.522 283.333 117.918 280.809C117.918 280.809 117.918 280.809 115.395 277.413C106.079 279.065 106.079 279.065 106.079 279.065Z" fill="#3AB67D"/>
<path d="M109.474 276.542L115.394 277.414L118.79 274.89C115.394 277.414 112.871 274.018 109.474 276.542Z" fill="#3AB67D"/>
<path d="M112.87 274.019C115.393 277.414 118.79 274.891 112.87 274.019C118.79 274.891 116.266 271.495 116.266 271.495C116.266 271.495 116.266 271.495 112.87 274.019Z" fill="#3AB67D"/>
<path d="M116.266 271.495C119.662 268.972 122.185 272.368 116.266 271.495C122.185 272.368 125.582 269.844 116.266 271.495C119.662 268.972 119.662 268.972 116.266 271.495Z" fill="#3AB67D"/>
<path d="M126.456 263.923C128.98 267.319 129.852 261.399 126.456 263.923V263.923Z" fill="#3AB67D"/>
<path d="M142.85 193.761C142.85 193.761 146.246 191.238 142.85 193.761C148.769 194.634 149.642 188.714 142.85 193.761C146.246 191.238 143.723 187.842 142.85 193.761C143.723 187.842 140.326 190.366 142.85 193.761Z" fill="#3AB67D"/>
<path d="M141.202 184.444L147.122 185.316L150.518 182.792C147.122 185.316 141.202 184.444 141.202 184.444Z" fill="#3AB67D"/>
<path d="M138.679 181.049C144.599 181.921 144.599 181.921 144.599 181.921L147.995 179.397C144.599 181.921 138.679 181.049 138.679 181.049Z" fill="#3AB67D"/>
<path d="M136.155 177.652C142.075 178.524 142.075 178.524 144.598 181.92L147.995 179.396C142.075 178.524 139.552 175.128 136.155 177.652C139.552 175.128 136.155 177.652 136.155 177.652Z" fill="#3AB67D"/>
<path d="M131.108 170.86L137.028 171.732L142.948 172.604L140.425 169.208L134.505 168.336C137.028 171.732 128.585 167.464 131.108 170.86Z" fill="#3AB67D"/>
<path d="M128.585 167.465C134.505 168.337 140.425 169.209 146.345 170.081L149.741 167.557C147.217 164.161 143.821 166.685 141.298 163.289C131.982 164.941 131.982 164.941 128.585 167.465C128.585 167.465 126.062 164.069 128.585 167.465Z" fill="#3AB67D"/>
<path d="M135.377 162.418L141.296 163.29L147.216 164.162C147.216 164.162 150.612 161.639 148.089 158.243L142.169 157.371C138.773 159.894 136.25 156.498 135.377 162.418C135.377 162.418 132.853 159.022 135.377 162.418Z" fill="#3AB67D"/>
<path d="M142.168 157.372C142.168 157.372 144.691 160.768 142.168 157.372C148.088 158.244 148.088 158.244 150.611 161.64L154.008 159.116C154.008 159.116 151.484 155.72 148.088 158.244C145.564 154.848 142.168 157.372 142.168 157.372Z" fill="#3AB67D"/>
<path d="M145.567 154.846C148.091 158.242 151.487 155.718 154.01 159.114C154.01 159.114 157.407 156.59 154.883 153.194C148.964 152.322 148.964 152.322 145.567 154.846C143.044 151.45 143.044 151.45 145.567 154.846Z" fill="#3AB67D"/>
<path d="M148.963 152.322C148.963 152.322 154.883 153.195 148.963 152.322C154.883 153.195 158.279 150.671 152.359 149.799C152.359 149.799 149.836 146.403 148.963 152.322Z" fill="#3AB67D"/>
<path d="M155.754 147.276C159.15 144.752 161.674 148.149 155.754 147.276C155.754 147.276 159.15 144.752 155.754 147.276Z" fill="#3AB67D"/>
<path d="M159.15 144.753C162.546 142.229 165.07 145.625 159.15 144.753C160.023 138.833 162.546 142.229 159.15 144.753C159.15 144.753 156.626 141.357 159.15 144.753Z" fill="#3AB67D"/>
<path d="M162.549 142.227C165.946 139.704 165.946 139.704 162.549 142.227C163.422 136.308 163.422 136.308 162.549 142.227C160.026 138.831 160.026 138.831 162.549 142.227Z" fill="#3AB67D"/>
<path d="M189.036 85.6491C191.56 89.0451 191.56 89.0451 189.036 85.6491C191.56 89.0451 194.956 86.5213 189.036 85.6491C191.56 89.0451 189.036 85.6491 189.036 85.6491Z" fill="#3AB67D"/>
<path d="M186.513 82.2526C186.513 82.2526 189.036 85.6485 186.513 82.2526C189.036 85.6485 192.432 83.1248 186.513 82.2526Z" fill="#3AB67D"/>
<path d="M183.99 78.8575C183.99 78.8575 186.513 82.2534 189.909 79.7297C189.909 79.7297 193.306 77.2059 189.909 79.7297C187.386 76.3338 181.466 75.4617 183.99 78.8575Z" fill="#3AB67D"/>
<path d="M178.943 72.0658L184.863 72.938L188.259 70.4142C184.863 72.938 181.466 75.4617 178.943 72.0658Z" fill="#3AB67D"/>
<path d="M176.419 68.6693C176.419 68.6693 178.943 72.0652 176.419 68.6693C182.339 69.5414 182.339 69.5415 184.862 72.9374L188.259 70.4136C188.259 70.4136 188.259 70.4136 185.735 67.0177C179.815 66.1455 176.419 68.6693 176.419 68.6693Z" fill="#3AB67D"/>
<path d="M171.372 61.8776C171.372 61.8776 173.896 65.2735 177.292 62.7497L183.212 63.6218C183.212 63.6218 186.608 61.0981 183.212 63.6218L177.292 62.7497L171.372 61.8776Z" fill="#3AB67D"/>
<path d="M162.93 57.6093C165.453 61.0052 168.85 58.4814 171.373 61.8773C171.373 61.8773 177.293 62.7494 180.689 60.2257C178.166 56.8298 174.769 59.3535 171.373 61.8773C172.246 55.9576 166.326 55.0855 162.93 57.6093Z" fill="#3AB67D"/>
<path d="M157.883 50.8176C160.407 54.2134 166.326 55.0856 166.326 55.0856L172.246 55.9577L178.166 56.8298C178.166 56.8298 178.166 56.8298 172.246 55.9577L166.326 55.0856C169.723 52.5618 167.199 49.1659 157.883 50.8176C163.803 51.6897 161.28 48.2938 157.883 50.8176Z" fill="#3AB67D"/>
<path d="M158.756 44.8984C161.279 48.2943 167.199 49.1665 170.595 46.6427C176.515 47.5148 176.515 47.5149 182.435 48.387C182.435 48.387 185.831 45.8632 179.911 44.9911C173.992 44.119 170.595 46.6427 168.072 43.2468C164.675 45.7706 164.675 45.7706 158.756 44.8984Z" fill="#3AB67D"/>
<path d="M168.074 43.2452C170.598 46.6411 173.994 44.1174 176.518 47.5133C182.437 48.3854 182.437 48.3854 188.357 49.2575C188.357 49.2575 189.23 43.338 185.834 45.8617C185.834 45.8617 185.834 45.8617 189.23 43.338C186.707 39.9421 183.31 42.4658 177.39 41.5937C171.471 40.7215 171.471 40.7215 168.074 43.2452C165.551 39.8493 165.551 39.8493 168.074 43.2452Z" fill="#3AB67D"/>
<path d="M172.342 34.803L178.262 35.6751L184.181 36.5473C184.181 36.5473 187.578 34.0235 184.181 36.5473C184.181 36.5473 184.181 36.5473 180.785 39.071C180.785 39.071 180.785 39.071 174.865 38.1989C178.262 35.6751 172.342 34.803 172.342 34.803Z" fill="#3AB67D"/>
<path d="M181.657 33.1526C187.576 34.0247 187.576 34.0247 190.1 37.4206L193.496 34.8969C185.053 30.6288 182.53 27.2329 181.657 33.1526C179.133 29.7567 179.133 29.7567 181.657 33.1526Z" fill="#3AB67D"/>
<path d="M188.452 28.1031C188.452 28.1031 190.975 31.499 188.452 28.1031C194.371 28.9752 197.768 26.4515 191.848 25.5794C191.848 25.5794 191.848 25.5794 188.452 28.1031C188.452 28.1031 185.928 24.7073 188.452 28.1031Z" fill="#3AB67D"/>
<path d="M191.847 25.5801C191.847 25.5801 195.243 23.0563 191.847 25.5801C197.767 26.4521 197.767 26.4521 195.243 23.0563C195.243 23.0563 192.72 19.6605 191.847 25.5801C191.847 25.5801 189.324 22.1842 191.847 25.5801Z" fill="#3AB67D"/>
<path d="M196.115 17.1378L202.035 18.0099C202.035 18.0099 205.431 15.4862 199.511 14.6141C202.035 18.0099 196.115 17.1378 196.115 17.1378Z" fill="#3AB67D"/>
<path d="M199.514 14.6119C202.038 18.0078 202.038 18.0078 199.514 14.6119C205.434 15.484 205.434 15.484 199.514 14.6119C205.434 15.484 199.514 14.6119 199.514 14.6119Z" fill="#3AB67D"/>
<path d="M205.434 15.4846C208.83 12.9608 208.83 12.9608 205.434 15.4846C206.307 9.565 208.83 12.9608 205.434 15.4846C202.91 12.0887 202.91 12.0887 205.434 15.4846Z" fill="#3AB67D"/>
</g>
</svg>
