<svg width="231" height="379" viewBox="0 0 231 379" fill="none" xmlns="http://www.w3.org/2000/svg">
<g opacity="0.1">
<path d="M22.2887 369.883C20.6383 360.567 12.1952 356.299 9.67183 352.903C2.10169 342.716 -2.94509 335.924 -10.5152 325.736C-23.1321 308.757 -33.2256 295.173 -45.8425 278.194C-45.8425 278.194 -45.8425 278.194 -46.7155 284.114C-29.7336 271.495 -16.1482 261.4 0.833691 248.781C0.833691 248.781 0.833688 248.781 -5.08606 247.909C17.6243 278.472 43.7311 306.511 60.5218 336.202C60.5218 336.202 60.5218 336.202 61.3947 330.282C51.2056 337.854 41.0165 345.425 30.8274 352.996C27.4311 355.52 24.0347 358.043 20.6383 360.567C25.6851 367.359 22.2887 369.883 22.2887 369.883C28.2085 370.755 22.2887 369.883 22.2887 369.883C31.6048 368.231 35.0012 365.707 38.3976 363.184C48.5867 355.612 58.7758 348.041 68.9649 340.47C68.9649 340.47 72.3613 337.946 69.8379 334.55C47.1275 303.987 24.4171 273.424 4.23007 246.257C4.23007 246.257 1.70667 242.862 -1.6897 245.385C-18.6715 258.004 -32.257 268.099 -49.2389 280.718C-49.2389 280.718 -52.6352 283.241 -50.1119 286.637C-40.0184 300.221 -27.4015 317.2 -17.308 330.784C-9.73784 340.971 -4.69106 347.763 2.87908 357.951C8.79882 358.823 16.369 369.011 22.2887 369.883Z" fill="#3AB67D"/>
<path d="M93.6123 316.884C55.7617 265.946 17.9111 215.008 -17.4162 167.466C-17.4162 167.466 -17.4162 167.466 -18.2892 173.385C-1.30734 160.766 19.0709 145.624 36.0527 133.005C36.0527 133.005 36.0528 133.005 30.133 132.133C67.9837 183.071 103.311 230.614 141.162 281.552C141.162 281.552 141.162 281.552 142.035 275.632C131.845 283.203 125.053 288.251 114.864 295.822C108.071 300.87 101.278 305.917 97.8817 308.441C94.4853 310.965 97.0087 314.36 93.6123 316.884C93.6123 316.884 97.0087 314.36 99.5321 317.756C106.325 312.709 109.721 310.185 116.514 305.138C126.703 297.566 136.892 289.995 143.685 284.948C143.685 284.948 147.081 282.424 144.558 279.028C106.707 228.09 71.38 180.548 33.5294 129.61C33.5294 129.61 31.006 126.214 27.6096 128.737C10.6278 141.356 -9.75042 156.499 -26.7323 169.117C-26.7323 169.117 -30.1287 171.641 -27.6053 175.037C10.2454 225.975 48.096 276.913 86.8196 321.932C90.216 319.408 97.0087 314.36 93.6123 316.884Z" fill="#3AB67D"/>
<path d="M9.36073 47.421C28.866 38.1982 46.7208 19.6599 63.7027 7.04116C63.7027 7.04116 63.7027 7.04122 57.7829 6.16909C108.25 74.0866 161.241 145.4 211.709 213.317L212.582 207.398C195.6 220.017 177.745 238.555 158.24 247.778C158.24 247.778 160.763 251.174 164.16 248.65C141.449 218.087 118.739 187.524 96.0285 156.961C78.3649 133.19 60.7013 109.419 43.0376 85.6478C35.4675 75.4602 25.374 61.8767 9.36073 47.421C16.0579 63.5283 28.6748 80.5077 41.2917 97.4871C58.9553 121.258 76.6189 145.029 94.2825 168.8C116.993 199.363 139.703 229.926 162.414 260.489C162.414 260.489 164.937 263.885 168.333 261.361C185.315 248.743 205.693 233.6 222.675 220.981C222.675 220.981 226.072 218.458 223.548 215.062C173.081 147.144 120.09 75.8308 69.6224 7.91332C69.6224 7.91332 67.099 4.51741 63.7027 7.04116C44.1974 16.264 27.2156 28.8827 9.36073 47.421Z" fill="#3AB67D"/>
<path d="M17.2407 363.092C17.2407 363.092 19.7641 366.488 17.2407 363.092C19.7641 366.488 23.1604 363.964 23.1604 363.964L29.0802 364.836C29.0802 364.836 29.0801 364.836 23.1604 363.964C23.1604 363.964 23.1604 363.964 17.2407 363.092C23.1604 363.964 20.6371 360.569 17.2407 363.092Z" fill="#3AB67D"/>
<path d="M20.64 360.566L26.5597 361.438L32.4794 362.311C32.4794 362.311 32.4794 362.311 26.5597 361.438C26.5597 361.438 26.5597 361.438 20.64 360.566C24.0364 358.043 24.0364 358.043 20.64 360.566Z" fill="#3AB67D"/>
<path d="M24.0351 358.043C26.5585 361.439 29.9549 358.915 32.4782 362.311L38.398 363.183L32.4782 362.311C27.4315 355.519 27.4315 355.519 24.0351 358.043C21.5117 354.647 21.5117 354.647 24.0351 358.043Z" fill="#3AB67D"/>
<path d="M28.3032 349.6C28.3032 349.6 30.8266 352.996 28.3032 349.6C34.223 350.472 34.223 350.472 36.7464 353.868C39.2697 357.264 42.6661 354.74 45.1895 358.136C45.1895 358.136 48.5859 355.613 45.1895 358.136C42.6661 354.74 39.2697 357.264 33.35 356.392C34.223 350.472 28.3032 349.6 28.3032 349.6C28.3032 349.6 24.9068 352.124 28.3032 349.6Z" fill="#3AB67D"/>
<path d="M29.176 343.682C35.0958 344.554 35.0957 344.554 41.0155 345.426C43.5389 348.822 46.9352 346.298 49.4586 349.694C49.4586 349.694 46.9352 346.298 43.5389 348.822L37.6191 347.95C35.0957 344.554 35.0958 344.554 29.176 343.682Z" fill="#3AB67D"/>
<path d="M32.5749 341.156C38.4946 342.028 38.4946 342.028 44.4143 342.9C50.3341 343.772 52.8575 347.168 56.2539 344.644C53.7305 341.248 50.3341 343.772 50.3341 343.772L44.4143 342.9C39.3676 336.108 33.4479 335.236 32.5749 341.156Z" fill="#3AB67D"/>
<path d="M33.4468 335.236C39.3666 336.109 45.2863 336.981 47.8097 340.377C53.7295 341.249 56.2529 344.645 65.569 342.993C63.0456 339.597 53.7294 341.249 51.2061 337.853C46.1593 331.061 40.2396 330.189 33.4468 335.236C34.3198 329.317 33.4468 335.236 33.4468 335.236Z" fill="#3AB67D"/>
<path d="M37.7156 326.795C43.6353 327.667 49.555 328.539 52.0784 331.935C57.9982 332.807 60.5216 336.203 63.9179 333.679C61.3946 330.283 55.4748 329.411 49.5551 328.539C47.0317 325.143 41.1119 324.271 37.7156 326.795C37.7156 326.795 34.3192 329.318 37.7156 326.795Z" fill="#3AB67D"/>
<path d="M32.6682 320.002C38.588 320.875 44.5077 321.747 44.5077 321.747C50.4274 322.619 52.9508 326.015 56.3472 323.491C53.8238 320.095 47.9041 319.223 44.5077 321.747C44.5077 321.747 38.588 320.875 32.6682 320.002C36.0646 317.479 32.6682 320.002 32.6682 320.002Z" fill="#3AB67D"/>
<path d="M33.5403 314.083C36.0637 317.479 39.46 314.956 41.9834 318.352C45.3798 315.828 51.2995 316.7 51.2995 316.7C51.2995 316.7 54.6959 314.176 51.2995 316.7C48.7761 313.304 45.3798 315.828 42.8564 312.432C42.8564 312.432 36.9366 311.56 33.5403 314.083Z" fill="#3AB67D"/>
<path d="M34.4165 308.162L40.3363 309.034C40.3363 309.034 42.8596 312.43 46.256 309.906C46.256 309.906 46.256 309.906 52.1758 310.778L55.5721 308.254C53.0488 304.858 49.6524 307.382 47.1291 303.986C37.8129 305.638 35.2895 302.242 34.4165 308.162C34.4165 308.162 31.8932 304.766 34.4165 308.162Z" fill="#3AB67D"/>
<path d="M32.7654 298.847C35.2887 302.243 35.2887 302.243 32.7654 298.847C38.6851 299.719 38.6851 299.719 41.2085 303.115C41.2085 303.115 44.6049 300.591 41.2085 303.115C41.2085 303.115 38.6851 299.719 35.2888 302.243C38.6851 299.719 32.7654 298.847 32.7654 298.847Z" fill="#3AB67D"/>
<path d="M30.2421 295.451L36.1618 296.323C39.5582 293.799 36.1618 296.323 30.2421 295.451C33.6384 292.927 33.6384 292.927 30.2421 295.451Z" fill="#3AB67D"/>
<path d="M27.7186 292.055C27.7186 292.055 33.6384 292.927 27.7186 292.055C33.6384 292.927 36.1617 296.323 33.6383 292.927C37.0347 290.403 31.115 289.531 27.7186 292.055C31.115 289.531 27.7186 292.055 27.7186 292.055Z" fill="#3AB67D"/>
<path d="M88.5674 310.092L94.4872 310.964L100.407 311.836C100.407 311.836 103.803 309.312 100.407 311.836C97.8836 308.44 94.4872 310.964 94.4872 310.964C91.9638 307.568 89.4404 304.172 88.5674 310.092Z" fill="#3AB67D"/>
<path d="M89.4393 304.172L95.3591 305.044L101.279 305.916C101.279 305.916 101.279 305.916 95.3591 305.044L89.4393 304.172C92.8357 301.648 92.8357 301.648 89.4393 304.172C92.8357 301.648 89.4393 304.172 89.4393 304.172Z" fill="#3AB67D"/>
<path d="M93.7074 295.73C96.2308 299.126 99.6271 296.603 105.547 297.475C108.943 294.951 111.467 298.347 114.863 295.823C114.863 295.823 118.259 293.299 112.34 292.427C109.816 289.031 106.42 291.555 103.024 294.079C99.6271 296.603 96.2308 299.126 93.7074 295.73Z" fill="#3AB67D"/>
<path d="M94.58 289.811C97.1033 293.207 103.023 294.079 106.419 291.555C109.816 289.032 112.339 292.428 115.736 289.904L121.655 290.776C119.132 287.38 112.339 292.428 109.816 289.032C106.419 291.555 103.896 288.16 100.5 290.683C97.1033 293.207 94.58 289.811 94.58 289.811Z" fill="#3AB67D"/>
<path d="M97.9787 287.285C103.898 288.157 109.818 289.029 115.738 289.901C119.134 287.377 121.658 290.773 125.054 288.249C125.054 288.249 130.974 289.122 128.45 285.726C128.45 285.726 128.45 285.726 122.531 284.854C119.134 287.377 116.611 283.981 113.215 286.505C107.295 285.633 101.375 284.761 97.9787 287.285C97.9787 287.285 95.4553 283.889 97.9787 287.285Z" fill="#3AB67D"/>
<path d="M96.3279 277.97C102.248 278.842 108.167 279.714 114.087 280.586C120.007 281.458 125.927 282.33 135.243 280.679C135.243 280.679 138.639 278.155 135.243 280.679C129.323 279.807 123.403 278.935 117.484 278.062C108.167 279.714 102.248 278.842 96.3279 277.97Z" fill="#3AB67D"/>
<path d="M97.2 272.051C99.7233 275.447 111.563 277.191 117.483 278.063C123.402 278.935 123.402 278.935 129.322 279.807C129.322 279.807 135.242 280.68 138.638 278.156L132.718 277.284C126.799 276.411 123.402 278.935 117.483 278.063C112.436 271.271 106.516 270.399 97.2 272.051Z" fill="#3AB67D"/>
<path d="M98.0721 266.132C103.992 267.004 109.912 267.876 115.831 268.748C121.751 269.62 127.671 270.492 136.987 268.841C136.987 268.841 140.383 266.317 136.987 268.841C131.067 267.969 121.751 269.62 115.831 268.748C109.912 267.876 101.469 263.608 98.0721 266.132Z" fill="#3AB67D"/>
<path d="M98.9446 260.213C110.784 261.957 120.1 260.305 131.94 262.05C131.94 262.05 135.336 259.526 131.94 262.05C129.416 258.654 120.1 260.305 120.1 260.305C114.18 259.433 108.261 258.561 98.9446 260.213Z" fill="#3AB67D"/>
<path d="M99.8206 254.291C105.74 255.163 111.66 256.035 111.66 256.035C117.58 256.907 123.5 257.779 126.896 255.256C126.896 255.256 130.292 252.732 126.896 255.256C120.976 254.384 115.056 253.511 111.66 256.035C109.137 252.639 103.217 251.767 99.8206 254.291C99.8206 254.291 97.2972 250.895 99.8206 254.291Z" fill="#3AB67D"/>
<path d="M98.1693 244.976C100.693 248.372 106.612 249.244 110.009 246.721C115.929 247.593 119.325 245.069 121.848 248.465C121.848 248.465 125.245 245.941 121.848 248.465C115.929 247.593 112.532 250.116 110.009 246.721C104.089 245.848 100.693 248.372 98.1693 244.976Z" fill="#3AB67D"/>
<path d="M98.169 244.976C100.692 248.372 104.089 245.848 106.612 249.244L112.532 250.116L118.452 250.988C118.452 250.988 121.848 248.464 118.452 250.988L112.532 250.116L106.612 249.244C104.962 239.928 95.6456 241.58 98.169 244.976Z" fill="#3AB67D"/>
<path d="M96.5184 235.661C96.5184 235.661 99.0418 239.057 96.5184 235.661C102.438 236.533 102.438 236.533 104.962 239.929L110.881 240.801C110.881 240.801 116.801 241.673 114.278 238.278C114.278 238.278 114.278 238.278 108.358 237.405L102.438 236.533C102.438 236.533 102.438 236.533 96.5184 235.661C99.9148 233.137 96.5184 235.661 96.5184 235.661Z" fill="#3AB67D"/>
<path d="M97.3906 229.742C99.914 233.138 103.31 230.614 103.31 230.614C103.31 230.614 103.31 230.614 109.23 231.487C109.23 231.487 109.23 231.486 115.15 232.359C112.627 228.963 109.23 231.487 109.23 231.487C103.31 230.614 97.3906 229.742 97.3906 229.742Z" fill="#3AB67D"/>
<path d="M94.8673 226.346C97.3907 229.742 100.787 227.219 94.8673 226.346C100.787 227.219 106.707 228.091 106.707 228.091L100.787 227.219C98.2637 223.823 98.2637 223.823 94.8673 226.346Z" fill="#3AB67D"/>
<path d="M92.344 222.951C95.7404 220.427 98.2638 223.823 92.344 222.951C98.2638 223.823 104.184 224.695 104.184 224.695L98.2637 223.823C95.7403 220.427 95.7404 220.427 92.344 222.951Z" fill="#3AB67D"/>
<path d="M89.8203 219.554C93.2166 217.03 93.2166 217.03 89.8203 219.554C95.74 220.426 98.2634 223.822 101.66 221.298C96.613 214.507 96.613 214.507 89.8203 219.554C93.2166 217.03 90.6933 213.635 89.8203 219.554C87.2969 216.158 87.2969 216.158 89.8203 219.554Z" fill="#3AB67D"/>
<path d="M90.6923 213.635C96.6121 214.507 96.6122 214.507 96.6122 214.507C94.0887 211.111 91.5653 207.715 90.6923 213.635C90.6923 213.635 88.1689 210.239 90.6923 213.635Z" fill="#3AB67D"/>
<path d="M85.6455 206.843C88.1689 210.239 88.1689 210.239 85.6455 206.843C91.5653 207.716 91.5653 207.716 91.5653 207.716C91.5653 207.716 89.0419 204.32 85.6455 206.843Z" fill="#3AB67D"/>
<path d="M83.1222 203.448C85.6455 206.843 85.6455 206.843 83.1222 203.448C89.0419 204.32 89.042 204.32 86.5186 200.924C86.5186 200.924 86.5186 200.924 83.1222 203.448Z" fill="#3AB67D"/>
<path d="M83.1224 203.448C86.5188 200.924 86.5188 200.924 83.1224 203.448C89.0422 204.32 86.5188 200.924 86.5188 200.924C83.9954 197.528 83.9954 197.528 83.1224 203.448C83.9954 197.528 80.599 200.052 83.1224 203.448Z" fill="#3AB67D"/>
<path d="M164.158 248.651C166.681 252.047 170.078 249.523 164.158 248.651C170.078 249.523 172.601 252.919 175.997 250.395L170.078 249.523C167.554 246.127 167.554 246.127 164.158 248.651Z" fill="#3AB67D"/>
<path d="M167.553 246.127L173.473 247L179.393 247.872C179.393 247.872 179.393 247.872 173.473 247C173.473 247 173.473 247 167.553 246.127C170.95 243.604 170.95 243.604 167.553 246.127Z" fill="#3AB67D"/>
<path d="M168.43 240.206C170.954 243.602 174.35 241.078 174.35 241.078L180.27 241.95C180.27 241.95 183.666 239.427 177.746 238.555C174.35 241.078 171.827 237.682 168.43 240.206C174.35 241.078 168.43 240.206 168.43 240.206Z" fill="#3AB67D"/>
<path d="M169.302 234.287C171.826 237.683 175.222 235.159 181.142 236.031C187.062 236.904 187.062 236.904 190.458 234.38C184.538 233.508 184.538 233.508 178.618 232.636C175.222 235.159 169.302 234.287 169.302 234.287Z" fill="#3AB67D"/>
<path d="M172.697 231.764L178.617 232.636C184.537 233.508 190.457 234.38 196.376 235.252C196.376 235.252 199.773 232.728 193.853 231.856C187.933 230.984 179.49 226.716 172.697 231.764C172.697 231.764 170.174 228.368 172.697 231.764Z" fill="#3AB67D"/>
<path d="M173.57 225.844C179.49 226.716 185.409 227.589 191.329 228.461C197.249 229.333 203.169 230.205 209.088 231.077C209.088 231.077 212.485 228.553 209.088 231.077C203.169 230.205 197.249 229.333 191.329 228.461C182.886 224.193 176.966 223.321 173.57 225.844C173.57 225.844 171.046 222.448 173.57 225.844Z" fill="#3AB67D"/>
<path d="M174.442 219.925C176.965 223.321 186.281 221.67 192.201 222.542C198.121 223.414 198.121 223.414 204.041 224.286C207.437 221.762 209.96 225.158 213.357 222.634C210.833 219.239 207.437 221.762 204.041 224.286C198.121 223.414 198.121 223.414 192.201 222.542C183.758 218.274 177.838 217.402 174.442 219.925Z" fill="#3AB67D"/>
<path d="M172.795 210.608C178.714 211.48 187.157 215.748 193.077 216.62C198.997 217.492 210.836 219.236 214.233 216.713C214.233 216.713 217.629 214.189 214.233 216.713C208.313 215.841 198.997 217.492 190.554 213.224C188.03 209.828 178.714 211.48 172.795 210.608Z" fill="#3AB67D"/>
<path d="M173.667 204.689C182.11 208.957 188.03 209.829 197.346 208.177C203.266 209.049 209.186 209.921 218.502 208.27C218.502 208.27 221.898 205.746 218.502 208.27C212.582 207.398 206.662 206.526 200.742 205.653C191.426 207.305 182.983 203.037 173.667 204.689Z" fill="#3AB67D"/>
<path d="M174.539 198.77C180.459 199.642 192.298 201.386 198.218 202.258C204.138 203.13 210.058 204.002 215.977 204.875C215.977 204.875 213.454 201.479 210.058 204.002C204.138 203.13 204.138 203.13 198.218 202.258C189.775 197.99 180.459 199.642 174.539 198.77Z" fill="#3AB67D"/>
<path d="M175.411 192.851C177.935 196.247 181.331 193.723 181.331 193.723C187.251 194.595 187.251 194.595 193.171 195.467C199.09 196.339 205.01 197.211 208.406 194.688C205.883 191.292 196.567 192.943 193.171 195.467C187.251 194.595 187.251 194.595 181.331 193.723C178.808 190.327 175.411 192.851 175.411 192.851Z" fill="#3AB67D"/>
<path d="M170.365 186.059C172.888 189.455 182.204 187.803 182.204 187.803C185.6 185.28 188.124 188.675 191.52 186.152C194.917 183.628 197.44 187.024 197.44 187.024C194.917 183.628 188.997 182.756 185.6 185.28C182.204 187.803 179.681 184.407 176.284 186.931C176.284 186.931 173.761 183.535 170.365 186.059Z" fill="#3AB67D"/>
<path d="M171.237 180.14L177.157 181.012L183.077 181.885C188.997 182.757 191.52 186.153 194.916 183.629C194.916 183.629 198.313 181.105 192.393 180.233C188.997 182.757 186.473 179.361 180.554 178.489C180.554 178.489 172.11 174.221 171.237 180.14Z" fill="#3AB67D"/>
<path d="M169.59 170.822C172.113 174.218 175.509 171.695 181.429 172.567L187.349 173.439L193.269 174.311C190.745 170.915 187.349 173.439 181.429 172.567C175.509 171.695 172.986 168.299 169.59 170.822Z" fill="#3AB67D"/>
<path d="M167.066 167.427C169.59 170.822 172.986 168.299 172.986 168.299C178.906 169.171 178.906 169.171 184.826 170.043C184.826 170.043 188.222 167.519 184.826 170.043C178.906 169.171 178.906 169.171 172.986 168.299C173.859 162.379 170.463 164.903 167.066 167.427Z" fill="#3AB67D"/>
<path d="M165.416 158.112C167.939 161.507 171.335 158.984 171.335 158.984C171.335 158.984 177.255 159.856 180.651 157.332C178.128 153.936 174.732 156.46 174.732 156.46C171.335 158.984 165.416 158.112 165.416 158.112Z" fill="#3AB67D"/>
<path d="M162.892 154.716L168.812 155.588L174.732 156.46C174.732 156.46 174.732 156.46 168.812 155.588C168.812 155.588 168.812 155.588 162.892 154.716C168.812 155.588 166.289 152.192 162.892 154.716Z" fill="#3AB67D"/>
<path d="M163.764 148.796C163.764 148.796 166.287 152.192 169.684 149.668L175.603 150.54C169.684 149.668 169.684 149.668 163.764 148.796Z" fill="#3AB67D"/>
<path d="M158.717 142.004C161.24 145.4 161.24 145.4 158.717 142.004C164.637 142.877 167.16 146.272 167.16 146.272C167.16 146.272 170.557 143.749 167.16 146.272C167.16 146.272 164.637 142.876 161.24 145.4C164.637 142.876 162.113 139.481 158.717 142.004Z" fill="#3AB67D"/>
<path d="M156.194 138.609C156.194 138.609 162.114 139.481 156.194 138.609C162.114 139.481 164.637 142.877 164.637 142.877L158.717 142.004C159.59 136.085 159.59 136.085 156.194 138.609Z" fill="#3AB67D"/>
<path d="M153.67 135.213C153.67 135.213 162.114 139.481 162.987 133.561C162.987 133.561 160.463 130.165 157.067 132.689C157.067 132.689 157.067 132.689 153.67 135.213Z" fill="#3AB67D"/>
<path d="M154.543 129.294C157.066 132.69 160.462 130.166 160.462 130.166C157.939 126.77 157.939 126.77 154.543 129.294C154.543 129.294 152.019 125.898 154.543 129.294C154.543 129.294 152.019 125.898 154.543 129.294Z" fill="#3AB67D"/>
<path d="M149.496 122.502C152.019 125.898 152.019 125.898 149.496 122.502C152.019 125.898 155.416 123.374 155.416 123.374L149.496 122.502Z" fill="#3AB67D"/>
<path d="M146.973 119.106C149.496 122.502 149.496 122.502 146.973 119.106C152.892 119.978 152.892 119.978 152.892 119.978L146.973 119.106Z" fill="#3AB67D"/>
<path d="M144.449 115.71C144.449 115.71 146.973 119.106 144.449 115.71C146.973 119.106 146.973 119.106 144.449 115.71C150.369 116.583 150.369 116.583 150.369 116.583L144.449 115.71Z" fill="#3AB67D"/>
<path d="M-3.15046 193.761C-3.15046 193.761 0.245892 191.238 -3.15046 193.761C2.76924 194.634 3.64224 188.714 -3.15046 193.761C0.245892 191.238 -2.27745 187.842 -3.15046 193.761C-2.27745 187.842 -5.6738 190.366 -3.15046 193.761Z" fill="#3AB67D"/>
<path d="M-4.79797 184.444L1.12176 185.316L4.51811 182.792C1.12174 185.316 -4.79797 184.444 -4.79797 184.444Z" fill="#3AB67D"/>
<path d="M-7.3208 181.049C-1.40109 181.921 -1.40107 181.921 -1.40107 181.921L1.99528 179.397C-1.40109 181.921 -7.3208 181.049 -7.3208 181.049Z" fill="#3AB67D"/>
<path d="M-9.8446 177.652C-3.92486 178.524 -3.92483 178.524 -1.40146 181.92L1.99489 179.396C-3.92485 178.524 -6.44823 175.128 -9.8446 177.652C-6.44823 175.128 -9.8446 177.652 -9.8446 177.652Z" fill="#3AB67D"/>
<path d="M-17.4146 167.464C-11.4949 168.337 -5.57517 169.209 0.344563 170.081L3.74091 167.557C1.21754 164.161 -2.17882 166.685 -4.70219 163.289C-14.0183 164.941 -14.0183 164.941 -17.4146 167.464C-17.4146 167.464 -19.938 164.069 -17.4146 167.464Z" fill="#3AB67D"/>
<path d="M-10.6234 162.418L-4.70364 163.29L1.2161 164.162C1.2161 164.162 4.61247 161.639 2.08908 158.243L-3.83064 157.371C-7.22701 159.894 -9.75038 156.498 -10.6234 162.418C-10.6234 162.418 -13.1468 159.022 -10.6234 162.418Z" fill="#3AB67D"/>
<path d="M-3.83203 157.372C-3.83203 157.372 -1.30864 160.768 -3.83203 157.372C2.08774 158.244 2.08772 158.244 4.61111 161.64L8.00751 159.116C8.00751 159.116 5.48409 155.72 2.08771 158.244C-0.435678 154.848 -3.83203 157.372 -3.83203 157.372Z" fill="#3AB67D"/>
<path d="M-0.432661 154.846C2.09072 158.242 5.48708 155.718 8.01046 159.114C8.01046 159.114 11.4068 156.59 8.88344 153.194C2.96368 152.322 2.96372 152.322 -0.432661 154.846C-2.95604 151.45 -2.95604 151.45 -0.432661 154.846Z" fill="#3AB67D"/>
<path d="M2.96306 152.322C2.96306 152.322 8.88284 153.195 2.96306 152.322C8.88284 153.195 12.2792 150.671 6.35942 149.799C6.35942 149.799 3.83604 146.403 2.96306 152.322Z" fill="#3AB67D"/>
<path d="M9.75403 147.276C13.1504 144.752 15.6739 148.149 9.75403 147.276C9.75403 147.276 13.1504 144.752 9.75403 147.276Z" fill="#3AB67D"/>
<path d="M13.15 144.753C16.5463 142.229 19.0698 145.625 13.15 144.753C14.0229 138.833 16.5463 142.229 13.15 144.753C13.15 144.753 10.6265 141.357 13.15 144.753Z" fill="#3AB67D"/>
<path d="M16.5493 142.227C19.9457 139.704 19.9457 139.704 16.5493 142.227C17.4223 136.308 17.4223 136.308 16.5493 142.227C14.0259 138.831 14.0259 138.831 16.5493 142.227Z" fill="#3AB67D"/>
<path d="M43.0364 85.6492C45.5598 89.0451 45.5598 89.0451 43.0364 85.6492C45.5598 89.0451 48.9562 86.5214 43.0364 85.6492C45.5598 89.0451 43.0364 85.6492 43.0364 85.6492Z" fill="#3AB67D"/>
<path d="M40.5126 82.2526C40.5126 82.2526 43.036 85.6485 40.5126 82.2526C43.036 85.6485 46.4324 83.1248 40.5126 82.2526Z" fill="#3AB67D"/>
<path d="M37.9897 78.8575C37.9897 78.8575 40.513 82.2534 43.9094 79.7297C43.9094 79.7297 47.3057 77.2059 43.9094 79.7297C41.386 76.3338 35.4663 75.4617 37.9897 78.8575Z" fill="#3AB67D"/>
<path d="M32.943 72.0658L38.8627 72.938L42.2591 70.4142C38.8628 72.938 35.4664 75.4617 32.943 72.0658Z" fill="#3AB67D"/>
<path d="M30.4192 68.6693C30.4192 68.6693 32.9426 72.0652 30.4192 68.6693C36.339 69.5415 36.339 69.5415 38.8623 72.9374L42.2587 70.4137C42.2587 70.4137 42.2587 70.4137 39.7353 67.0178C33.8156 66.1456 30.4192 68.6693 30.4192 68.6693Z" fill="#3AB67D"/>
<path d="M25.3724 61.8776C25.3724 61.8776 27.8958 65.2735 31.2922 62.7497L37.2119 63.6218C37.2119 63.6218 40.6083 61.0981 37.2119 63.6218L31.2922 62.7497L25.3724 61.8776Z" fill="#3AB67D"/>
<path d="M16.9299 57.6093C19.4533 61.0052 22.8497 58.4814 25.3731 61.8773C25.3731 61.8773 31.2928 62.7494 34.6892 60.2257C32.1658 56.8298 28.7694 59.3535 25.3731 61.8773C26.246 55.9576 20.3263 55.0855 16.9299 57.6093Z" fill="#3AB67D"/>
<path d="M11.8832 50.8176C14.4065 54.2135 20.3263 55.0856 20.3263 55.0856L26.246 55.9578L32.1657 56.8298C32.1657 56.8298 32.1658 56.8299 26.246 55.9578L20.3263 55.0856C23.7227 52.5619 21.1993 49.166 11.8832 50.8176C17.8029 51.6897 15.2795 48.2939 11.8832 50.8176Z" fill="#3AB67D"/>
<path d="M12.7557 44.8984C15.2791 48.2943 21.1989 49.1665 24.5952 46.6427C30.515 47.5148 30.515 47.5149 36.4347 48.387C36.4347 48.387 39.8311 45.8632 33.9113 44.9911C27.9916 44.119 24.5952 46.6427 22.0719 43.2468C18.6755 45.7706 18.6755 45.7706 12.7557 44.8984Z" fill="#3AB67D"/>
<path d="M22.0743 43.2452C24.5977 46.6411 27.9941 44.1173 30.5175 47.5132C36.4372 48.3854 36.4372 48.3853 42.357 49.2575C42.357 49.2575 43.23 43.3379 39.8336 45.8616C39.8336 45.8616 39.8336 45.8617 43.23 43.3379C40.7066 39.942 37.3102 42.4657 31.3904 41.5936C25.4707 40.7214 25.4707 40.7214 22.0743 43.2452C19.5509 39.8493 19.5509 39.8493 22.0743 43.2452Z" fill="#3AB67D"/>
<path d="M26.3418 34.803L32.2615 35.6751L38.1813 36.5473C38.1813 36.5473 41.5776 34.0235 38.1813 36.5473C38.1813 36.5473 38.1813 36.5473 34.7849 39.071C34.7849 39.071 34.7849 39.071 28.8652 38.1989C32.2615 35.6751 26.3418 34.803 26.3418 34.803Z" fill="#3AB67D"/>
<path d="M35.6567 33.1526C41.5765 34.0248 41.5765 34.0248 44.0999 37.4207L47.4963 34.8969C39.0531 30.6289 36.5297 27.233 35.6567 33.1526C33.1333 29.7567 33.1333 29.7567 35.6567 33.1526Z" fill="#3AB67D"/>
<path d="M42.4516 28.1031C42.4516 28.1031 44.9749 31.499 42.4516 28.1031C48.3713 28.9752 51.7676 26.4515 45.8479 25.5794C45.8479 25.5794 45.8479 25.5794 42.4516 28.1031C42.4516 28.1031 39.9282 24.7073 42.4516 28.1031Z" fill="#3AB67D"/>
<path d="M45.8471 25.5801C45.8471 25.5801 49.2435 23.0563 45.8471 25.5801C51.7668 26.4521 51.7668 26.4521 49.2435 23.0563C49.2435 23.0563 46.7201 19.6605 45.8471 25.5801C45.8471 25.5801 43.3237 22.1842 45.8471 25.5801Z" fill="#3AB67D"/>
<path d="M50.1151 17.1378L56.0348 18.0099C56.0348 18.0099 59.4312 15.4862 53.5115 14.6141C56.0348 18.0099 50.1151 17.1378 50.1151 17.1378Z" fill="#3AB67D"/>
<path d="M53.5143 14.6119C56.0376 18.0078 56.0376 18.0078 53.5143 14.6119C59.434 15.484 59.434 15.484 53.5143 14.6119C59.434 15.484 53.5143 14.6119 53.5143 14.6119Z" fill="#3AB67D"/>
<path d="M59.4336 15.4846C62.83 12.9609 62.83 12.9609 59.4336 15.4846C60.3067 9.56506 62.83 12.9609 59.4336 15.4846C56.9103 12.0888 56.9103 12.0888 59.4336 15.4846Z" fill="#3AB67D"/>
</g>
</svg>
