<svg width="285" height="201" viewBox="0 0 285 201" fill="none" xmlns="http://www.w3.org/2000/svg">
<g opacity="0.1">
<path d="M53.2074 157.912C49.6977 168.439 49.6978 182.476 49.6978 193.004C49.6978 193.004 49.6977 196.513 53.2074 196.513C77.7751 196.513 102.343 196.513 126.91 196.513C162.007 196.513 200.613 196.513 235.71 196.513C249.749 196.513 263.787 196.513 277.826 196.513C284.846 196.513 291.865 196.513 291.865 189.494C295.374 168.439 291.865 143.875 295.375 122.82C295.375 94.7471 295.375 66.6739 295.375 38.6006C295.375 31.5823 295.375 21.0548 295.375 14.0365C295.375 3.50903 281.336 7.01819 274.316 7.01819C232.2 7.01819 190.084 7.01819 147.968 7.01819C130.42 7.01819 109.362 7.01819 91.8138 10.5274C88.3041 10.5274 77.7751 10.5273 74.2655 14.0365C70.7558 17.5457 70.7557 31.5823 70.7557 38.6006C70.7557 42.1098 77.7751 42.1098 77.7751 38.6006C77.7751 31.5823 77.7751 28.0731 77.7751 21.0548C77.7751 17.5457 81.2848 17.5457 84.7945 17.5457C95.3235 17.5457 102.343 17.5457 112.872 14.0365C133.93 14.0365 158.497 14.0365 179.556 14.0365C204.123 14.0365 225.181 14.0365 249.749 14.0365C260.278 14.0365 270.807 14.0365 277.826 14.0365C281.336 14.0365 281.336 14.0365 284.846 14.0365C288.355 14.0365 288.355 14.0365 288.355 10.5274C288.355 10.5274 288.355 10.5273 288.355 14.0365C288.355 38.6006 288.355 59.6556 288.355 84.2197C288.355 112.293 288.355 143.875 288.355 171.949C288.355 178.967 288.355 182.476 288.355 189.494C288.355 189.494 288.355 189.494 288.355 193.004C288.355 189.494 291.865 189.494 288.355 189.494C284.845 189.494 281.336 189.494 274.316 189.494C249.749 189.494 221.672 189.494 197.104 193.004C151.478 193.004 102.343 193.004 56.7171 196.513C56.7171 196.513 56.7171 200.022 60.2268 200.022C56.7171 182.476 56.7171 171.949 53.2074 157.912C56.7171 157.912 53.2074 157.912 53.2074 157.912Z" fill="#3AB67D"/>
<path d="M70.7548 150.894C70.7548 154.403 67.2452 171.949 70.7548 171.949C74.2645 171.949 77.7741 171.949 81.2838 171.949C98.8321 171.949 116.381 171.949 137.439 171.949C179.555 171.949 225.18 171.949 267.296 168.439C267.296 168.439 270.806 168.439 270.806 164.93C270.806 115.802 274.315 66.6738 274.315 17.5456C274.315 14.0365 274.316 14.0365 270.806 14.0365C235.709 10.5273 200.613 14.0365 165.516 14.0365C147.968 14.0365 130.419 14.0365 109.361 14.0365C102.342 14.0365 95.3226 14.0365 91.8129 14.0365C84.7936 14.0365 88.3032 24.5639 88.3032 28.0731C88.3032 31.5823 91.8129 31.5823 95.3225 28.0731C95.3225 24.5639 95.3225 21.0548 95.3225 17.5456H98.8321C105.851 17.5456 112.871 17.5456 119.89 17.5456C137.439 17.5456 158.497 17.5456 176.045 17.5456C207.632 17.5456 239.219 14.0365 270.806 17.5456L267.296 14.0365C267.296 63.1647 263.787 112.293 263.787 161.421C263.787 161.421 263.787 157.912 267.296 157.912C228.69 161.421 186.574 161.421 147.968 161.421C130.419 161.421 109.361 161.421 91.8129 161.421C88.3033 161.421 81.2839 161.421 77.7742 161.421V157.912C74.2645 161.421 74.2645 157.912 70.7548 150.894C74.2645 150.894 70.7548 150.894 70.7548 150.894Z" fill="#3AB67D"/>
<path d="M46.1871 80.7105C39.1677 80.7105 39.1678 80.7105 35.6581 73.6922C35.6581 70.1831 35.6581 66.6739 32.1485 66.6739C28.6388 59.6556 18.1097 63.1647 11.0903 66.6739C4.071 73.6922 0.561355 87.7288 0.561355 98.2563C0.561355 108.784 -2.94829 129.839 7.58073 133.348C14.6001 136.857 25.129 136.857 28.6387 129.839C32.1484 126.33 32.1485 115.802 39.1678 115.802C42.6775 115.802 42.6775 122.82 42.6775 126.33C42.6775 136.857 42.6775 143.875 42.6775 154.403C42.6775 157.912 39.1678 164.93 42.6775 171.949L46.1871 175.458C49.6968 175.458 49.6968 171.949 49.6968 171.949C53.2065 168.439 56.7161 161.421 63.7355 161.421C70.7548 157.912 81.2838 161.421 88.3032 164.93C91.8129 164.93 91.8129 164.93 91.8129 161.421C98.8323 122.82 98.8323 84.2197 102.342 45.6189C102.342 38.6006 95.3225 35.0915 88.3032 35.0915C77.7742 31.5823 67.2452 35.0915 60.2258 42.1098C56.7162 45.6189 56.7161 52.6373 53.2065 59.6556C56.7161 59.6556 53.2064 77.2014 46.1871 80.7105C60.2258 84.2197 63.7355 63.1647 63.7355 52.6373C63.7355 49.1281 63.7355 49.1281 63.7355 45.6189C63.7355 42.1098 74.2645 38.6006 77.7742 35.0915C81.2839 35.0915 84.7935 35.0915 88.3032 35.0915L98.8322 38.6006V42.1098C95.3225 80.7105 91.8129 115.802 88.3032 154.403L91.8129 150.894C84.7936 147.385 74.2645 147.385 67.2452 147.385C63.7355 147.385 60.2259 150.894 56.7162 150.894C53.2065 150.894 53.2065 154.403 49.6968 154.403L46.1871 161.421C46.1871 161.421 49.6968 161.421 49.6968 164.93C49.6968 161.421 49.6968 154.403 49.6968 150.894C49.6968 143.875 49.6968 133.348 49.6968 126.33C49.6968 119.311 49.6968 112.293 46.1871 108.784C42.6774 105.275 35.6581 105.275 32.1485 108.784C28.6388 112.293 28.6387 112.293 28.6387 115.802C28.6387 115.802 28.6387 119.311 28.6387 122.82C25.129 129.839 18.1097 136.857 11.0903 122.82C7.58068 112.293 11.0904 91.238 14.6001 80.7105C18.1098 73.6922 25.1291 66.6739 32.1485 73.6922C35.6581 77.2014 32.1484 80.7105 35.6581 80.7105C39.1678 87.7288 42.6775 87.7288 49.6968 84.2197C49.6968 84.2197 49.6968 80.7105 46.1871 80.7105Z" fill="#3AB67D"/>
<path d="M77.7722 143.875C77.7722 143.875 81.2818 143.875 81.2818 147.385C84.7915 147.385 84.7915 147.385 88.3011 150.894C88.3011 150.894 91.8109 150.894 91.8109 147.385C91.8109 147.385 88.3012 143.875 84.7915 143.875C81.2819 143.875 81.2819 143.875 77.7722 143.875Z" fill="#3AB67D"/>
<path d="M81.2849 140.366C81.2849 140.366 81.2849 143.876 81.2849 140.366C84.7946 143.876 88.3043 143.876 88.3043 143.876C91.814 143.876 91.8141 143.876 91.8141 140.366C91.8141 140.366 88.3043 140.366 88.3043 136.857C84.7946 140.366 81.2849 140.366 81.2849 140.366Z" fill="#3AB67D"/>
<path d="M81.2849 136.857H84.7946C84.7946 136.857 88.3043 136.857 88.3043 140.366C91.814 140.366 91.8141 140.366 91.8141 136.857C91.8141 136.857 88.3043 136.857 84.7946 133.348C84.7946 133.348 81.2849 133.348 81.2849 136.857C81.2849 136.857 81.2849 133.348 81.2849 136.857Z" fill="#3AB67D"/>
<path d="M81.2849 129.839C81.2849 129.839 84.7946 129.839 88.3043 133.348H91.8141C91.8141 133.348 91.8141 133.348 91.8141 129.839L88.3043 126.33C88.3043 129.839 84.7946 129.839 81.2849 129.839Z" fill="#3AB67D"/>
<path d="M84.7917 126.33C88.3014 126.33 88.3013 126.33 88.3013 126.33L91.8111 129.839C91.8111 126.33 88.3014 126.33 84.7917 126.33C88.3014 122.821 84.7917 122.821 84.7917 126.33C81.2821 126.33 81.2821 126.33 84.7917 126.33Z" fill="#3AB67D"/>
<path d="M84.7942 119.311C88.3039 119.311 91.8136 122.821 95.3233 122.821C95.3233 122.821 98.8329 122.821 98.8329 119.311C98.8329 119.311 95.3233 115.802 91.8136 115.802C88.3039 119.311 84.7942 115.802 84.7942 119.311C84.7942 119.311 81.2845 119.311 84.7942 119.311Z" fill="#3AB67D"/>
<path d="M84.794 112.293C84.794 115.802 88.3036 115.802 88.3036 115.802C88.3036 115.802 91.8133 115.802 91.8133 119.311C91.8133 119.311 95.3229 119.311 95.3229 115.802L91.8133 112.293C88.3037 112.293 84.794 112.293 84.794 112.293Z" fill="#3AB67D"/>
<path d="M84.794 108.784C84.794 108.784 88.3037 108.784 91.8133 112.293H95.3229C95.3229 112.293 95.3229 112.293 98.8326 112.293C95.3229 108.784 91.8133 108.784 88.3036 108.784C88.3036 105.275 84.794 105.275 84.794 108.784Z" fill="#3AB67D"/>
<path d="M84.794 105.275H88.3036C88.3036 105.275 91.8133 105.275 91.8133 108.784C91.8133 108.784 95.3229 108.784 95.3229 105.275C95.3229 101.766 91.8133 101.766 91.8133 101.766C88.3037 101.766 88.3036 101.766 84.794 105.275C84.794 101.766 84.794 101.766 84.794 105.275Z" fill="#3AB67D"/>
<path d="M84.794 94.7472C84.794 98.2563 88.3036 98.2563 84.794 94.7472C91.8133 98.2563 95.3229 98.2563 95.3229 101.765C95.3229 101.765 98.8326 101.765 98.8326 98.2563C98.8326 94.7472 95.323 94.7472 91.8133 94.7472C91.8133 94.7472 91.8133 94.7472 84.794 94.7472C88.3036 94.7472 88.3036 94.7472 84.794 94.7472Z" fill="#3AB67D"/>
<path d="M88.3044 91.2381H91.8142L95.3238 94.7473C95.3238 94.7473 95.3238 94.7473 95.3238 91.2381C95.3238 87.7289 91.8142 87.7289 91.8142 87.7289C91.8142 87.7289 88.3044 87.7289 88.3044 91.2381C84.7947 91.2381 84.7947 91.2381 88.3044 91.2381Z" fill="#3AB67D"/>
<path d="M88.3033 84.2199H91.8131H95.3227C95.3227 84.2199 95.3226 84.2199 98.8323 84.2199H102.342C102.342 80.7107 98.8323 80.7107 95.3227 80.7107C91.813 84.2199 88.3033 84.2199 88.3033 84.2199C88.3033 84.2199 84.7937 84.2199 88.3033 84.2199Z" fill="#3AB67D"/>
<path d="M88.3033 80.7106C91.813 84.2197 95.3226 80.7106 98.8323 84.2197H102.342C102.342 80.7106 98.8323 80.7106 95.3227 80.7106C91.813 77.2014 88.3033 77.2014 88.3033 80.7106C88.3033 77.2014 84.7937 80.7106 88.3033 80.7106Z" fill="#3AB67D"/>
<path d="M88.3031 73.6923H91.8129C95.3225 73.6923 95.3225 73.6923 95.3225 77.2015C95.3225 80.7106 98.8321 77.2015 98.8321 73.6923H95.3225C91.8128 73.6923 88.3031 70.1832 88.3031 73.6923Z" fill="#3AB67D"/>
<path d="M88.3031 70.1832H91.8129H95.3225C95.3225 70.1832 95.3224 70.1832 98.8321 70.1832C98.8321 66.6741 95.3225 66.6741 95.3225 66.6741C91.8128 66.6741 88.3031 66.6741 88.3031 70.1832C88.3031 66.6741 88.3031 66.6741 88.3031 70.1832Z" fill="#3AB67D"/>
<path d="M88.3031 63.1648C91.8127 66.674 95.3224 63.1648 98.832 66.674H102.342C102.342 63.1648 98.832 63.1648 98.832 63.1648C95.3224 59.6557 91.8127 59.6557 88.3031 63.1648Z" fill="#3AB67D"/>
<path d="M88.3031 56.1466H91.8128H95.3224C95.3224 56.1466 95.3224 56.1466 98.832 56.1466H102.342C102.342 52.6374 98.832 52.6375 98.832 52.6375C95.3224 56.1466 88.3031 56.1466 88.3031 56.1466Z" fill="#3AB67D"/>
<path d="M88.3031 49.1283C88.3031 49.1283 91.8128 49.1283 95.3225 52.6375C98.8322 52.6375 98.8322 52.6375 102.342 56.1466H105.851C105.851 52.6375 102.342 52.6375 98.8321 52.6375C95.3224 49.1283 91.8128 49.1283 88.3031 49.1283Z" fill="#3AB67D"/>
<path d="M88.3031 45.619H91.8128C95.3225 45.619 95.3224 45.619 98.832 49.1282C98.832 49.1282 102.342 49.1282 102.342 45.619C98.8321 45.619 91.8127 42.1099 88.3031 45.619Z" fill="#3AB67D"/>
<path d="M91.8135 42.1098H95.3231H98.8328C98.8328 42.1098 98.8328 42.1098 102.343 42.1098H105.852C102.342 42.1098 98.8328 38.6006 95.3231 38.6006C95.3231 38.6006 91.8135 35.0915 91.8135 42.1098C88.3038 38.6006 88.3038 38.6006 91.8135 42.1098Z" fill="#3AB67D"/>
<path d="M49.6979 157.912C53.2075 157.912 53.2075 154.403 56.7171 154.403C60.2267 154.403 56.7171 150.894 56.7171 150.894C53.2075 150.894 49.6979 154.403 49.6979 157.912Z" fill="#3AB67D"/>
<path d="M49.6984 150.894C49.6984 150.894 53.208 150.894 49.6984 150.894C53.208 147.385 53.2081 147.385 56.7177 147.385V143.875C53.2081 143.875 46.1888 150.894 49.6984 150.894Z" fill="#3AB67D"/>
<path d="M49.6979 143.876C49.6979 143.876 53.2075 143.876 49.6979 143.876C53.2075 143.876 56.7172 140.366 56.7172 140.366C56.7172 140.366 56.7171 140.366 53.2074 140.366C53.2074 140.366 49.6979 140.366 49.6979 143.876C49.6979 143.876 49.6979 140.366 49.6979 143.876Z" fill="#3AB67D"/>
<path d="M49.6979 136.857H53.2074C56.717 136.857 53.2074 133.348 53.2074 133.348L49.6979 136.857Z" fill="#3AB67D"/>
<path d="M49.6979 133.348C49.6979 133.348 53.2074 133.348 53.2074 129.839C56.717 129.839 53.2074 126.33 53.2074 126.33C53.2074 126.33 49.6979 129.839 49.6979 133.348C49.6979 133.348 49.6979 129.839 49.6979 133.348Z" fill="#3AB67D"/>
<path d="M49.6979 126.33C53.2075 126.33 53.2075 122.82 53.2075 122.82C56.7171 122.82 53.2075 119.311 49.6979 119.311C53.2075 119.311 49.6979 122.82 49.6979 126.33Z" fill="#3AB67D"/>
<path d="M49.6979 119.311C49.6979 119.311 53.2074 119.311 49.6979 119.311C53.2074 119.311 53.2074 115.802 53.2074 115.802C56.717 115.802 53.2074 112.293 53.2074 112.293C53.2074 112.293 49.6979 115.802 49.6979 119.311C49.6979 119.311 49.6979 115.802 49.6979 119.311Z" fill="#3AB67D"/>
<path d="M49.6981 112.293H53.2077C56.7174 112.293 53.2077 108.784 53.2077 108.784C49.6981 108.784 49.6981 112.293 49.6981 112.293C49.6981 112.293 46.1884 112.293 49.6981 112.293Z" fill="#3AB67D"/>
<path d="M46.1888 108.784C46.1888 108.784 49.6984 108.784 46.1888 108.784C49.6984 108.784 49.6985 108.784 53.2081 108.784V105.275C49.6985 101.766 46.1888 105.275 46.1888 108.784Z" fill="#3AB67D"/>
<path d="M35.6579 108.784C39.1675 108.784 42.6772 108.784 46.1868 105.275L49.6966 101.766C49.6966 101.766 53.2062 101.766 53.2062 98.2565C49.6965 98.2565 46.1868 101.766 46.1868 101.766C42.6772 101.766 39.1675 105.275 35.6579 108.784C35.6579 108.784 35.6579 105.275 35.6579 108.784Z" fill="#3AB67D"/>
<path d="M39.167 101.766C42.6766 101.766 46.1863 101.766 49.6959 98.2564L53.2056 94.7473L56.7153 91.2381C56.7153 91.2381 56.7153 91.2381 56.7153 87.7289C53.2056 87.7289 49.6959 91.2381 49.6959 91.2381C46.1863 94.7473 42.6766 98.2564 39.167 101.766C39.167 101.766 39.167 98.2564 39.167 101.766Z" fill="#3AB67D"/>
<path d="M39.167 91.2382C42.6767 91.2382 46.1862 91.2382 46.1862 91.2382L49.696 87.729C49.696 87.729 53.2056 87.729 53.2056 84.2199C53.2056 84.2199 53.2056 84.2199 53.2056 80.7107C49.6959 80.7107 46.1862 80.7107 46.1862 84.2199L42.6766 87.729C42.6766 91.2382 42.6767 91.2382 39.167 91.2382Z" fill="#3AB67D"/>
<path d="M42.6754 84.2198C46.1851 84.2198 49.6948 84.2198 49.6948 84.2198C53.2045 84.2198 56.7142 80.7106 56.7142 77.2015C56.7142 77.2015 56.7142 73.6923 53.2045 73.6923C49.6948 73.6923 49.6947 77.2015 46.185 77.2015C46.185 80.7106 46.1851 80.7106 42.6754 84.2198Z" fill="#3AB67D"/>
<path d="M56.7154 70.1832H60.225C63.7347 70.1832 60.225 66.6741 60.225 66.6741L56.7154 70.1832Z" fill="#3AB67D"/>
<path d="M60.2238 66.6741H63.7334C67.2431 63.1649 63.7335 59.6557 60.2238 66.6741C60.2238 63.1649 60.2238 63.1649 60.2238 66.6741C60.2238 63.1649 60.2238 63.1649 60.2238 66.6741Z" fill="#3AB67D"/>
<path d="M60.2238 59.6557H63.7334C67.243 59.6557 63.7334 56.1465 63.7334 56.1465C63.7334 56.1465 60.2238 56.1465 60.2238 59.6557Z" fill="#3AB67D"/>
<path d="M60.2238 52.6375H63.7334C67.243 52.6375 63.7334 49.1283 63.7334 49.1283C63.7334 49.1283 60.2238 49.1283 60.2238 52.6375Z" fill="#3AB67D"/>
<path d="M63.7374 49.1281C67.2471 49.1281 67.2471 45.6189 70.7568 45.6189C67.2471 42.1098 63.7374 45.6189 63.7374 49.1281C63.7374 45.6189 60.2277 49.1281 63.7374 49.1281Z" fill="#3AB67D"/>
<path d="M147.966 70.1832C154.985 84.2198 165.514 94.7473 176.043 105.275C186.572 115.802 197.101 126.33 207.63 133.348C197.101 122.821 186.572 112.293 176.043 105.275C169.024 91.2381 158.495 80.7107 147.966 70.1832Z" fill="#3AB67D"/>
<path d="M176.044 84.2198C176.044 87.729 176.044 87.729 176.044 84.2198C179.554 87.729 179.554 87.729 183.064 87.729C183.064 87.729 179.554 84.2198 176.044 84.2198Z" fill="#3AB67D"/>
<path d="M277.826 189.494C281.335 189.494 281.335 189.494 284.845 185.985C284.845 185.985 288.355 185.985 288.355 182.476H291.864V178.967H288.355C284.845 178.967 284.845 178.967 281.335 182.476C277.826 185.985 277.826 185.985 277.826 189.494C277.826 189.494 277.826 185.985 277.826 189.494Z" fill="#3AB67D"/>
<path d="M277.826 182.476C281.335 182.476 281.335 178.967 284.845 178.967C288.355 178.967 288.355 175.458 291.864 175.458C295.374 175.458 291.864 171.949 288.355 175.458C288.355 175.458 288.355 175.458 288.355 171.949C284.845 175.458 281.335 178.967 277.826 182.476Z" fill="#3AB67D"/>
<path d="M281.335 175.458C281.335 175.458 284.845 175.458 284.845 171.949L288.354 168.44H284.845C284.845 168.44 281.335 168.44 281.335 171.949C281.335 171.949 277.825 175.458 281.335 175.458Z" fill="#3AB67D"/>
<path d="M281.335 168.44C284.845 168.44 284.845 164.93 288.354 164.93L291.864 161.421C288.354 161.421 288.354 164.93 284.845 164.93C281.335 164.93 281.335 164.93 281.335 168.44Z" fill="#3AB67D"/>
<path d="M281.336 161.421H284.846L288.356 157.912V154.403C288.356 154.403 284.846 154.403 284.846 157.912C281.336 157.912 281.336 157.912 281.336 161.421C277.826 161.421 277.826 161.421 281.336 161.421Z" fill="#3AB67D"/>
<path d="M281.335 154.403C284.845 150.894 288.354 150.894 291.864 147.385C291.864 143.875 284.845 147.385 284.845 147.385C281.335 150.894 277.825 150.894 281.335 154.403C281.335 154.403 277.825 154.403 281.335 154.403Z" fill="#3AB67D"/>
<path d="M281.335 147.385C281.335 147.385 284.845 147.385 288.354 143.876C288.354 143.876 291.864 143.876 291.864 140.366C291.864 140.366 295.374 140.366 295.374 136.857C295.374 136.857 295.374 136.857 295.374 133.348H291.864C291.864 133.348 288.354 133.348 288.354 136.857C284.845 143.876 281.335 143.876 281.335 147.385Z" fill="#3AB67D"/>
<path d="M277.826 140.366C281.335 140.366 284.845 136.857 288.355 133.348V129.839L284.845 133.348C281.335 136.857 277.826 140.366 277.826 140.366Z" fill="#3AB67D"/>
<path d="M277.826 136.857C281.335 136.857 281.335 133.348 284.845 133.348C288.355 133.348 291.864 129.839 291.864 129.839V126.33C288.355 126.33 284.845 129.839 284.845 129.839C281.335 129.839 277.826 133.348 277.826 136.857Z" fill="#3AB67D"/>
<path d="M277.826 129.839C281.336 126.33 284.845 126.33 284.845 126.33C288.355 126.33 291.865 122.821 291.865 119.311V115.802C288.355 115.802 284.845 119.311 281.336 122.821C277.826 126.33 277.826 126.33 277.826 129.839C277.826 129.839 274.316 129.839 277.826 129.839Z" fill="#3AB67D"/>
<path d="M274.317 122.82C277.826 122.82 281.336 119.311 281.336 119.311C284.846 115.802 288.355 115.802 291.865 112.293V108.784C288.355 108.784 284.846 112.293 281.336 115.802C277.826 115.802 274.317 119.311 274.317 122.82Z" fill="#3AB67D"/>
<path d="M270.804 115.802C274.314 119.311 277.823 115.802 281.333 112.293C284.843 108.784 291.862 105.275 291.862 101.765C291.862 101.765 291.862 98.2563 288.352 101.765C284.843 105.275 281.333 105.275 281.333 108.784C281.333 108.784 274.314 115.802 270.804 115.802Z" fill="#3AB67D"/>
<path d="M270.804 108.784C274.314 108.784 281.333 105.275 284.843 101.766C288.352 98.2564 295.372 94.7473 298.881 91.2381V87.7289C295.372 87.7289 288.352 94.7473 284.843 98.2564C274.314 105.275 270.804 105.275 270.804 108.784Z" fill="#3AB67D"/>
<path d="M267.296 101.766C270.805 101.766 274.315 98.2565 277.825 94.7473C281.334 91.2382 288.354 87.729 291.863 84.2198V80.7107C288.354 80.7107 284.844 84.2199 281.334 87.729C277.825 94.7473 270.805 98.2565 267.296 101.766Z" fill="#3AB67D"/>
<path d="M270.804 91.2381C274.314 94.7473 277.823 91.2381 277.823 87.729C281.333 84.2198 288.352 80.7106 291.862 77.2015V73.6923C288.352 77.2015 281.333 80.7106 277.823 80.7106C274.314 87.729 270.804 91.2381 270.804 91.2381Z" fill="#3AB67D"/>
<path d="M270.806 84.2198C274.316 84.2198 277.825 80.7107 281.335 80.7107C284.845 80.7107 284.845 77.2015 288.354 77.2015C288.354 73.6924 291.864 73.6924 291.864 70.1832C288.354 70.1832 284.845 73.6924 281.335 77.2015C277.825 77.2015 274.316 80.7107 270.806 84.2198C267.296 84.2198 267.296 84.2198 270.806 84.2198Z" fill="#3AB67D"/>
<path d="M270.806 77.2016C274.316 77.2016 281.335 73.6924 284.845 70.1833C288.354 66.6741 291.864 66.6741 295.374 63.1649C291.864 63.1649 288.354 66.6741 284.845 70.1833C277.825 70.1833 270.806 73.6924 270.806 77.2016C267.296 77.2016 267.296 77.2016 270.806 77.2016Z" fill="#3AB67D"/>
<path d="M270.806 66.6741C274.316 66.6741 277.825 66.6741 277.825 63.165C281.335 63.165 281.335 59.6558 284.845 59.6558C288.354 56.1466 291.864 56.1466 291.864 52.6375V49.1283C281.335 52.6375 277.825 63.165 270.806 66.6741C267.296 66.6741 267.296 66.6741 270.806 66.6741Z" fill="#3AB67D"/>
<path d="M267.296 59.6555C270.805 59.6555 274.315 59.6555 277.825 56.1464C281.334 56.1464 281.334 52.6372 284.844 49.1281C288.354 49.1281 288.354 45.6189 291.863 45.6189V42.1097C288.354 42.1097 284.844 45.6189 281.334 49.1281C274.315 52.6372 270.805 56.1464 267.296 59.6555Z" fill="#3AB67D"/>
<path d="M270.804 49.1281C274.314 49.1281 277.823 45.619 281.333 45.619C284.843 42.1098 288.352 38.6006 291.862 38.6006V35.0915C288.352 35.0915 284.843 38.6006 281.333 42.1098C277.823 42.1098 274.314 45.619 270.804 49.1281Z" fill="#3AB67D"/>
<path d="M270.804 42.1099C274.314 42.1099 277.823 38.6008 281.333 35.0916C284.843 31.5825 288.352 31.5825 291.862 28.0733C291.862 24.5641 291.862 28.0733 291.862 28.0733C288.352 28.0733 284.843 31.5825 281.333 35.0916C277.823 35.0916 274.314 35.0916 270.804 42.1099C270.804 42.1099 270.804 38.6008 270.804 42.1099Z" fill="#3AB67D"/>
<path d="M270.804 35.0915C274.314 35.0915 277.823 31.5824 284.843 28.0732C288.352 24.5641 291.862 24.5641 295.372 21.0549C295.372 21.0549 295.372 17.5457 291.862 17.5457C288.352 21.0549 281.333 24.5641 277.823 28.0732C274.314 28.0732 270.804 28.0732 270.804 35.0915Z" fill="#3AB67D"/>
<path d="M270.804 24.564C274.314 24.564 277.823 21.0548 281.333 17.5457C284.843 14.0365 288.352 10.5274 291.862 7.01822C288.352 7.01822 284.843 10.5274 281.333 14.0365C277.823 17.5457 270.804 21.0549 270.804 24.564Z" fill="#3AB67D"/>
<path d="M267.296 21.0548C270.805 21.0548 270.805 17.5457 274.315 17.5457C277.824 14.0365 277.824 14.0365 281.334 10.5274V7.01822C277.824 7.01822 274.315 10.5274 274.315 10.5274C270.805 14.0365 267.296 17.5457 267.296 21.0548Z" fill="#3AB67D"/>
<path d="M260.277 21.0548C263.787 21.0548 263.787 17.5457 267.297 17.5457C267.297 14.0365 270.806 10.5274 270.806 10.5274V7.01822C267.297 10.5274 260.277 14.0365 260.277 21.0548C260.277 21.0548 260.277 17.5457 260.277 21.0548Z" fill="#3AB67D"/>
<path d="M253.256 17.5457C256.765 17.5457 256.765 14.0365 260.275 14.0365C263.785 14.0365 263.784 10.5274 263.784 7.01822C260.275 7.01822 260.275 10.5274 256.765 10.5274C256.765 14.0365 253.256 14.0365 253.256 17.5457Z" fill="#3AB67D"/>
<path d="M246.239 17.5457C249.749 17.5457 249.749 14.0365 249.749 14.0365C253.259 10.5274 253.259 10.5274 256.768 10.5274V7.01822C253.259 7.01822 253.259 10.5274 249.749 10.5274C246.239 14.0365 246.239 14.0365 246.239 17.5457C242.73 17.5457 242.73 17.5457 246.239 17.5457Z" fill="#3AB67D"/>
<path d="M235.707 21.0548C239.217 17.5457 239.217 17.5457 242.726 14.0365C246.236 10.5274 249.746 10.5274 249.746 7.01822C246.236 7.01822 242.726 10.5274 242.726 14.0365C239.217 14.0365 235.707 17.5457 235.707 21.0548Z" fill="#3AB67D"/>
<path d="M228.69 17.5457C232.199 17.5457 232.199 14.0366 235.709 14.0366C239.219 14.0366 239.219 10.5274 239.219 7.01824C239.219 7.01824 235.709 3.50909 235.709 7.01824C235.709 10.5274 232.199 10.5274 228.69 14.0366C228.69 14.0366 228.69 14.0366 228.69 17.5457Z" fill="#3AB67D"/>
<path d="M221.672 17.5457C225.182 17.5457 225.182 14.0365 228.692 14.0365C228.692 14.0365 232.201 10.5274 235.711 10.5274V7.01822C232.201 7.01822 232.201 10.5274 228.692 10.5274C221.672 10.5274 218.163 14.0365 221.672 17.5457C221.672 17.5457 218.163 17.5457 221.672 17.5457Z" fill="#3AB67D"/>
<path d="M211.141 17.5457C214.651 17.5457 214.651 14.0366 214.651 14.0366C218.161 10.5274 218.161 10.5274 221.67 7.01824C221.67 7.01824 221.67 3.50909 218.161 7.01824C214.651 7.01824 211.141 10.5274 211.141 14.0366C211.141 14.0366 211.141 14.0366 211.141 17.5457Z" fill="#3AB67D"/>
<path d="M204.122 17.5457C207.631 17.5457 207.631 14.0365 211.141 14.0365C211.141 14.0365 214.651 10.5274 214.651 7.01822C211.141 7.01822 211.141 10.5274 207.631 10.5274C204.122 14.0365 204.122 14.0365 204.122 17.5457C200.612 17.5457 200.612 17.5457 204.122 17.5457Z" fill="#3AB67D"/>
<path d="M193.593 17.5457C197.102 17.5457 197.102 17.5457 193.593 17.5457C197.102 17.5457 200.612 14.0365 200.612 14.0365C204.122 10.5274 207.632 10.5274 207.632 7.01822C207.632 7.01822 204.122 7.01822 204.122 10.5274C200.612 10.5274 200.612 14.0365 197.103 14.0365L193.593 17.5457Z" fill="#3AB67D"/>
<path d="M183.063 17.5457C186.572 17.5457 190.082 14.0365 193.592 14.0365C197.101 10.5274 200.611 10.5274 200.611 7.01822C197.101 7.01822 197.101 10.5274 193.592 14.0365C190.082 10.5274 186.572 14.0365 183.063 17.5457Z" fill="#3AB67D"/>
<path d="M179.554 17.5458C183.063 17.5458 183.063 14.0366 183.063 14.0366C186.573 14.0366 186.573 10.5274 190.083 7.01828V3.50912C186.573 3.50912 183.063 7.01828 183.063 10.5274C179.554 14.0366 176.044 17.5458 179.554 17.5458C179.554 17.5458 176.044 17.5458 179.554 17.5458Z" fill="#3AB67D"/>
<path d="M169.027 21.055C172.537 21.055 172.537 17.5458 176.046 17.5458L179.556 14.0367C179.556 14.0367 183.066 14.0367 183.066 10.5275C179.556 10.5275 176.046 14.0367 176.046 14.0367C172.537 14.0367 169.027 17.5458 169.027 21.055Z" fill="#3AB67D"/>
<path d="M158.497 17.5458C162.006 17.5458 165.516 14.0366 165.516 14.0366C169.026 10.5274 172.535 10.5274 172.535 7.01828C172.535 7.01828 172.535 3.50912 169.026 3.50912C165.516 3.50912 165.516 7.01828 162.006 10.5274C162.006 14.0366 158.497 17.5458 158.497 17.5458Z" fill="#3AB67D"/>
<path d="M151.478 17.5458C154.988 17.5458 154.988 14.0366 158.498 14.0366L162.008 10.5274C162.008 10.5274 165.517 10.5274 165.517 7.01828C165.517 7.01828 165.517 7.01828 165.517 3.50912C162.008 3.50912 158.498 7.01828 158.498 7.01828C154.988 14.0366 151.478 14.0366 151.478 17.5458Z" fill="#3AB67D"/>
<path d="M144.457 21.0548C147.966 21.0548 147.966 17.5457 151.476 17.5457C154.986 14.0365 158.495 14.0365 158.495 10.5274V7.01822C154.986 7.01822 151.476 10.5274 147.966 14.0365C147.966 14.0365 144.457 17.5457 144.457 21.0548Z" fill="#3AB67D"/>
<path d="M137.437 17.5458C140.947 17.5458 144.456 14.0366 144.456 14.0366C147.966 10.5274 151.476 10.5274 151.476 7.01828C151.476 7.01828 151.476 3.50912 147.966 3.50912C147.966 3.50912 147.966 3.50912 151.476 3.50912C151.476 3.50912 151.476 3.50912 147.966 3.50912C144.456 7.01828 144.456 7.01828 140.947 10.5274C140.947 14.0366 137.437 14.0366 137.437 17.5458C133.927 17.5458 133.927 17.5458 137.437 17.5458Z" fill="#3AB67D"/>
<path d="M130.417 17.5457C133.927 17.5457 133.927 14.0365 137.437 14.0365L140.947 10.5274L144.456 7.01822C140.947 7.01822 137.437 10.5274 137.437 10.5274L133.927 14.0365C130.417 14.0365 130.417 14.0365 130.417 17.5457Z" fill="#3AB67D"/>
<path d="M119.891 17.5458C123.4 17.5458 123.4 14.0366 126.91 10.5275C130.42 7.01832 133.929 7.01832 133.929 3.50916V0C130.42 0 126.91 3.50916 126.91 7.01832C123.4 14.0366 119.891 14.0366 119.891 17.5458Z" fill="#3AB67D"/>
<path d="M109.36 21.0549C112.87 21.0549 112.869 17.5458 116.379 14.0366C119.889 10.5274 123.399 10.5274 126.908 7.01828V3.50912C123.399 3.50912 119.889 7.01828 116.379 10.5274C112.869 14.0366 109.36 17.5458 109.36 21.0549Z" fill="#3AB67D"/>
<path d="M102.342 17.5458C105.852 17.5458 105.852 14.0366 109.362 14.0366C112.871 10.5274 112.871 10.5274 116.381 7.01828C119.891 7.01828 116.381 3.50912 116.381 3.50912C112.871 3.50912 109.362 7.01828 109.362 10.5274C105.852 14.0366 102.342 17.5458 102.342 17.5458Z" fill="#3AB67D"/>
<path d="M95.3206 17.5457C98.8303 17.5457 98.8303 14.0365 102.34 14.0365C105.85 14.0365 109.359 10.5274 109.359 7.01822C105.85 7.01822 105.85 10.5274 102.34 10.5274C98.8303 14.0365 95.3206 14.0365 95.3206 17.5457Z" fill="#3AB67D"/>
<path d="M88.3031 17.5457C91.8128 17.5457 95.3224 14.0365 98.8321 14.0365C102.342 10.5274 105.851 10.5274 105.851 7.01822C102.342 7.01822 98.8321 10.5274 98.8321 14.0365C91.8127 10.5274 88.3031 14.0365 88.3031 17.5457Z" fill="#3AB67D"/>
<path d="M74.2638 24.564C77.7735 24.564 81.283 21.0548 81.283 21.0548C84.7927 17.5457 84.7927 17.5457 88.3024 14.0365L91.8121 10.5274V7.01822C88.3025 7.01822 84.7927 10.5274 81.283 14.0365C77.7734 17.5457 77.7735 17.5457 74.2638 21.0548C77.7735 21.0548 74.2638 24.564 74.2638 24.564Z" fill="#3AB67D"/>
<path d="M77.7724 31.5823C81.2821 31.5823 84.7918 28.0732 84.7918 28.0732C88.3015 24.564 91.8111 24.564 91.8111 21.0549C88.3015 21.0549 88.3015 24.564 84.7918 28.0732C81.2821 24.564 77.7724 28.0732 77.7724 31.5823C77.7724 31.5823 74.2628 31.5823 77.7724 31.5823Z" fill="#3AB67D"/>
<path d="M67.2456 175.458C70.7553 175.458 74.265 171.949 74.265 168.44C74.265 168.44 70.7552 168.44 70.7552 171.949C67.2455 171.949 67.2456 171.949 67.2456 175.458Z" fill="#3AB67D"/>
<path d="M63.7372 171.949C67.2469 171.949 67.247 171.949 67.247 168.44C67.247 168.44 70.7566 164.93 70.7566 161.421C70.7566 161.421 67.247 161.421 67.247 164.93C67.247 168.44 67.2469 168.44 63.7372 171.949Z" fill="#3AB67D"/>
<path d="M60.2238 168.44C63.7335 168.44 67.2431 164.93 67.2431 164.93C70.7528 161.421 70.7528 161.421 74.2625 157.912C70.7528 157.912 70.7528 161.421 67.2431 164.93C63.7335 164.93 60.2238 164.93 60.2238 168.44Z" fill="#3AB67D"/>
<path d="M56.7154 168.44C60.2251 164.931 63.7346 161.421 63.7346 157.912C67.2443 154.403 70.754 154.403 70.754 150.894C67.2443 150.894 63.7347 157.912 60.225 157.912C60.225 161.421 56.7154 164.931 56.7154 168.44Z" fill="#3AB67D"/>
<path d="M56.7154 164.931C60.2251 164.931 63.7347 161.421 63.7347 157.912C67.2443 154.403 67.2444 154.403 67.2444 150.894C63.7347 150.894 63.7347 154.403 60.225 154.403C60.225 157.912 56.7154 161.421 56.7154 164.931Z" fill="#3AB67D"/>
</g>
</svg>
