<svg xmlns="http://www.w3.org/2000/svg" xmlns:xlink="http://www.w3.org/1999/xlink" viewBox="0,0,256,256" width="50px" height="50px" fill-rule="nonzero"><g fill="#ffffff" fill-rule="nonzero" stroke="#ffffff" stroke-width="10.24" stroke-linecap="butt" stroke-linejoin="round" stroke-miterlimit="10" stroke-dasharray="" stroke-dashoffset="0" font-family="none" font-weight="none" font-size="none" text-anchor="none" style="mix-blend-mode: normal"><path d="M207.04,40.78l-6.7,7.91c-19.1232,-17.4592 -44.47184,-28.21 -72.34,-28.21c-59.28448,0 -107.52,48.23552 -107.52,107.52c0,59.28448 48.23552,107.52 107.52,107.52c59.28448,0 107.52,-48.23552 107.52,-107.52c0,-20.1728 -5.6876,-39.00152 -15.39,-55.15l7.01,-8.28c11.76064,18.31936 18.62,40.0828 18.62,63.43c0,64.93696 -52.82304,117.76 -117.76,117.76c-64.93696,0 -117.76,-52.82304 -117.76,-117.76c0,-64.93696 52.82304,-117.76 117.76,-117.76c30.3872,0 58.1248,11.5704 79.04,30.54zM229.19,46.32l-105.88,124.93l-49.49,-46.16l6.98,-7.49l41.64,38.84l98.93,-116.74z" id="strokeMainSVG"></path></g><g fill="#ffffff" fill-rule="nonzero" stroke="none" stroke-width="1" stroke-linecap="butt" stroke-linejoin="miter" stroke-miterlimit="10" stroke-dasharray="" stroke-dashoffset="0" font-family="none" font-weight="none" font-size="none" text-anchor="none" style="mix-blend-mode: normal"><g transform="scale(5.12,5.12)"><path d="M25,2c-12.683,0 -23,10.317 -23,23c0,12.683 10.317,23 23,23c12.683,0 23,-10.317 23,-23c0,-4.56 -1.33972,-8.81067 -3.63672,-12.38867l-1.36914,1.61719c1.895,3.154 3.00586,6.83148 3.00586,10.77148c0,11.579 -9.421,21 -21,21c-11.579,0 -21,-9.421 -21,-21c0,-11.579 9.421,-21 21,-21c5.443,0 10.39391,2.09977 14.12891,5.50977l1.30859,-1.54492c-4.085,-3.705 -9.5025,-5.96484 -15.4375,-5.96484zM43.23633,7.75391l-19.32227,22.80078l-8.13281,-7.58594l-1.36328,1.46289l9.66602,9.01563l20.67969,-24.40039z"></path></g></g></svg>