<svg width="16" height="16" viewBox="0 0 16 16" fill="none" xmlns="http://www.w3.org/2000/svg">
<g clip-path="url(#clip0_38_37)">
<path d="M7.99992 14.6666C11.6818 14.6666 14.6666 11.6819 14.6666 7.99998C14.6666 4.31808 11.6818 1.33331 7.99992 1.33331C4.31802 1.33331 1.33325 4.31808 1.33325 7.99998C1.33325 11.6819 4.31802 14.6666 7.99992 14.6666Z" stroke="#687A92" stroke-width="1.5" stroke-linecap="round" stroke-linejoin="round"/>
<path d="M6.05981 5.99995C6.21655 5.5544 6.52592 5.17869 6.93312 4.93937C7.34032 4.70006 7.81908 4.61258 8.2846 4.69243C8.75012 4.77228 9.17236 5.0143 9.47653 5.37564C9.78071 5.73697 9.94718 6.1943 9.94648 6.66662C9.94648 7.99995 7.94648 8.66662 7.94648 8.66662" stroke="#687A92" stroke-width="1.5" stroke-linecap="round" stroke-linejoin="round"/>
<path d="M8 11.3333H8.00667" stroke="#687A92" stroke-width="1.5" stroke-linecap="round" stroke-linejoin="round"/>
</g>
<defs>
<clipPath id="clip0_38_37">
<rect width="16" height="16" fill="white"/>
</clipPath>
</defs>
</svg>
