<svg width="18" height="18" viewBox="0 0 18 18" fill="none" xmlns="http://www.w3.org/2000/svg">
<path fill-rule="evenodd" clip-rule="evenodd" d="M5.25 16.5C5.04289 16.5 4.875 16.3321 4.875 16.125L4.875 2.625C4.875 2.41789 5.04289 2.25 5.25 2.25C5.45711 2.25 5.625 2.41789 5.625 2.625L5.625 16.125C5.625 16.3321 5.45711 16.5 5.25 16.5Z" fill="#687A92"/>
<path fill-rule="evenodd" clip-rule="evenodd" d="M1.62414 5.90373C1.4702 5.76518 1.45772 5.52808 1.59627 5.37413L4.97127 1.62413C5.04238 1.54512 5.1437 1.5 5.25 1.5C5.35631 1.5 5.45762 1.54512 5.52874 1.62413L8.90374 5.37413C9.04229 5.52808 9.02981 5.76518 8.87586 5.90373C8.72192 6.04228 8.48482 6.0298 8.34627 5.87586L5.25 2.43556L2.15374 5.87586C2.01519 6.0298 1.77808 6.04228 1.62414 5.90373Z" fill="#687A92"/>
<path fill-rule="evenodd" clip-rule="evenodd" d="M12.75 15.75C12.5429 15.75 12.375 15.5821 12.375 15.375L12.375 1.875C12.375 1.66789 12.5429 1.5 12.75 1.5C12.9571 1.5 13.125 1.66789 13.125 1.875L13.125 15.375C13.125 15.5821 12.9571 15.75 12.75 15.75Z" fill="#687A92"/>
<path fill-rule="evenodd" clip-rule="evenodd" d="M9.12414 12.0963C9.27808 11.9577 9.51519 11.9702 9.65374 12.1241L12.75 15.5644L15.8463 12.1241C15.9848 11.9702 16.2219 11.9577 16.3759 12.0963C16.5298 12.2348 16.5423 12.4719 16.4037 12.6259L13.0287 16.3759C12.9576 16.4549 12.8563 16.5 12.75 16.5C12.6437 16.5 12.5424 16.4549 12.4713 16.3759L9.09627 12.6259C8.95772 12.4719 8.9702 12.2348 9.12414 12.0963Z" fill="#687A92"/>
</svg>
