<svg width="18" height="18" viewBox="0 0 18 18" fill="none" xmlns="http://www.w3.org/2000/svg">
<path d="M8.0925 12.2175C8.385 12.51 8.8575 12.51 9.15 12.2175L11.8425 9.525C11.912 9.45561 11.9672 9.3732 12.0048 9.28247C12.0425 9.19174 12.0618 9.09448 12.0618 8.99625C12.0618 8.89802 12.0425 8.80076 12.0048 8.71003C11.9672 8.6193 11.912 8.53689 11.8425 8.4675L9.15 5.775C9.00977 5.63477 8.81957 5.55598 8.62125 5.55598C8.42293 5.55598 8.23273 5.63477 8.0925 5.775C7.95227 5.91523 7.87348 6.10543 7.87348 6.30375C7.87348 6.50207 7.95227 6.69227 8.0925 6.8325L9.5025 8.25H3C2.5875 8.25 2.25 8.5875 2.25 9C2.25 9.4125 2.5875 9.75 3 9.75H9.5025L8.0925 11.16C7.8 11.4525 7.8075 11.9325 8.0925 12.2175ZM14.25 2.25H3.75C3.35218 2.25 2.97064 2.40804 2.68934 2.68934C2.40804 2.97064 2.25 3.35218 2.25 3.75V6C2.25 6.4125 2.5875 6.75 3 6.75C3.4125 6.75 3.75 6.4125 3.75 6V4.5C3.75 4.0875 4.0875 3.75 4.5 3.75H13.5C13.9125 3.75 14.25 4.0875 14.25 4.5V13.5C14.25 13.9125 13.9125 14.25 13.5 14.25H4.5C4.0875 14.25 3.75 13.9125 3.75 13.5V12C3.75 11.5875 3.4125 11.25 3 11.25C2.5875 11.25 2.25 11.5875 2.25 12V14.25C2.25 15.075 2.925 15.75 3.75 15.75H14.25C15.075 15.75 15.75 15.075 15.75 14.25V3.75C15.75 2.925 15.075 2.25 14.25 2.25Z" fill="white"/>
</svg>
