<svg width="198" height="195" viewBox="0 0 198 195" fill="none" xmlns="http://www.w3.org/2000/svg">
<g opacity="0.1">
<path d="M97.8396 0C71.7491 0 47.1932 7.67256 27.2416 26.0868C11.8942 41.4319 4.22053 62.9151 1.15105 82.8638C-0.383685 93.6054 -0.383685 104.347 1.15105 115.089C4.22053 127.365 8.82477 138.106 14.9637 148.848C30.3111 170.331 53.3322 188.745 79.4228 193.349C127 201.022 173.042 174.935 191.459 131.968C205.271 98.209 196.063 59.8461 174.577 32.2248C156.16 9.20707 125.465 -3.06906 96.3049 1.53449C122.395 4.60352 148.486 10.7416 166.903 30.6903C180.716 46.0355 188.389 65.9842 191.459 85.9329C197.598 124.296 174.577 164.193 139.278 181.073C113.187 193.349 79.4227 194.884 54.8669 181.073C30.3111 168.797 11.8942 144.245 4.22054 118.158C-1.91841 96.6745 4.22058 70.5877 13.429 50.639C24.1722 27.6213 45.6585 12.2761 70.2143 6.13806C77.888 4.60354 87.0964 3.06901 96.3049 3.06901C100.909 3.06901 100.909 0 97.8396 0Z" fill="#3AB67D"/>
<path d="M37.9854 49.1045C19.5685 70.5877 18.0337 101.278 27.2422 127.365C33.3811 144.244 45.6591 158.055 61.0065 165.728C80.9581 176.469 102.444 179.538 123.931 171.866C150.021 162.659 169.973 139.641 176.112 113.554C179.181 96.6745 179.181 79.7948 171.508 62.9151C163.834 46.0355 150.021 33.7593 134.674 24.5523C119.327 16.8797 100.91 13.8106 84.0276 16.8797C65.6107 21.4832 47.1938 33.7594 37.9854 49.1045C39.5201 50.639 37.9854 50.639 37.9854 49.1045C51.798 39.8974 62.5412 29.1558 77.8886 24.5523C91.7012 19.9487 105.514 19.9487 119.327 24.5523C146.952 32.2248 168.438 53.708 173.042 82.8638C174.577 96.6745 173.042 110.485 168.438 122.761C163.834 138.106 153.091 148.848 140.813 158.055C119.327 174.935 91.7013 176.469 67.1454 164.193C51.798 156.521 41.0549 145.779 33.3812 131.968C21.1032 105.882 22.6379 75.1913 39.5201 52.1735C41.0548 49.1045 39.5201 47.57 37.9854 49.1045Z" fill="#3AB67D"/>
<path d="M96.3042 35.2939C99.3737 58.3116 102.443 72.1223 105.513 105.882C100.908 105.882 93.2348 105.882 90.1653 105.882C88.6306 105.882 93.2348 52.1736 96.3042 35.2939Z" fill="#3AB67D"/>
<path d="M148.486 142.71C128.535 131.968 116.257 124.296 88.6313 105.882C91.7008 102.813 96.3051 96.6746 97.8398 93.6056C97.8398 93.6056 137.743 130.434 148.486 142.71Z" fill="#3AB67D"/>
<path d="M51.7975 179.538C51.7975 181.073 51.7975 181.073 53.3322 182.607L54.8669 184.142C54.8669 182.607 54.867 182.607 53.3322 182.607C54.867 179.538 53.3323 179.538 51.7975 179.538C51.7975 179.538 53.3323 178.004 51.7975 179.538Z" fill="#3AB67D"/>
<path d="M56.4023 181.073C56.4023 182.607 56.4023 182.607 57.937 184.142L59.4717 185.676C59.4717 184.142 59.4717 184.142 57.937 182.607C57.937 181.073 57.937 181.073 56.4023 181.073Z" fill="#3AB67D"/>
<path d="M59.4711 181.073C59.4711 182.607 59.4711 182.607 61.0058 184.142C61.0058 185.676 62.5406 187.211 64.0753 187.211C64.0753 185.676 62.5405 185.676 62.5405 184.142C61.0058 182.607 61.0059 181.073 59.4711 181.073Z" fill="#3AB67D"/>
<path d="M62.5398 182.607C62.5398 184.142 64.0746 185.676 64.0746 185.676C64.0746 187.211 65.6093 188.745 67.1441 188.745C67.1441 188.745 67.1441 188.745 67.1441 187.211C67.1441 187.211 67.144 185.676 65.6093 185.676L64.0746 184.142C65.6093 182.607 64.0745 182.607 62.5398 182.607Z" fill="#3AB67D"/>
<path d="M67.1447 184.142C67.1447 185.676 68.6794 187.211 68.6794 187.211C68.6794 188.745 70.2142 190.28 71.749 190.28C71.749 190.28 71.7489 190.28 73.2837 190.28C74.8185 188.745 71.749 188.745 71.749 187.211C70.2142 185.676 68.6795 184.142 67.1447 184.142Z" fill="#3AB67D"/>
<path d="M71.7498 184.142C71.7498 185.676 73.2845 187.211 73.2845 188.745C74.8192 190.28 74.8192 191.814 77.8887 191.814C79.4234 191.814 79.4235 190.28 79.4235 190.28L77.8887 188.745L76.354 187.211C74.8192 185.676 73.2845 184.142 71.7498 184.142C71.7498 184.142 71.7498 182.607 71.7498 184.142Z" fill="#3AB67D"/>
<path d="M76.3529 184.142C76.3529 185.676 76.3529 185.676 76.3529 184.142C77.8876 185.676 77.8876 187.211 77.8876 187.211C79.4224 188.745 79.4224 190.28 80.9571 191.814C82.4919 193.349 82.4919 191.814 82.4919 190.28C80.9572 188.745 79.4224 187.211 77.8876 185.676C77.8876 185.676 77.8876 184.142 76.3529 184.142Z" fill="#3AB67D"/>
<path d="M80.9576 184.142C80.9576 185.676 82.4924 187.211 84.0272 188.745C85.5619 190.28 87.0966 191.814 88.6314 193.349C90.1661 193.349 90.1662 193.349 90.1662 191.814C88.6314 190.28 87.0966 188.745 85.5619 187.211C84.0271 187.211 82.4924 185.676 80.9576 184.142Z" fill="#3AB67D"/>
<path d="M85.561 184.142C85.561 185.676 87.0957 187.211 87.0957 188.745C88.6305 190.28 90.1652 191.814 91.6999 193.349C93.2346 193.349 93.2346 191.814 93.2346 191.814C91.6999 190.28 90.1652 188.745 90.1652 188.745C88.6305 187.211 87.0957 185.676 85.561 184.142Z" fill="#3AB67D"/>
<path d="M90.1659 184.142C90.1659 185.676 91.7006 187.211 93.2353 188.745C94.77 190.28 96.3048 191.814 97.8395 191.814C97.8395 191.814 99.3742 190.28 97.8395 190.28L96.3048 188.745L94.7701 187.211C93.2353 187.211 93.2353 185.676 90.1659 184.142C90.1659 184.142 91.7006 184.142 90.1659 184.142Z" fill="#3AB67D"/>
<path d="M94.7709 184.142C94.7709 185.676 96.3056 187.211 97.8404 188.745C97.8404 190.28 99.3751 190.28 100.91 191.814C100.91 193.349 102.445 193.349 103.979 193.349C103.979 193.349 105.514 193.349 105.514 191.814C105.514 190.28 102.445 188.745 100.91 187.211C99.3751 187.211 99.3751 185.676 97.8404 185.676C97.8404 185.676 96.3056 184.142 94.7709 184.142C94.7709 184.142 96.3056 184.142 94.7709 184.142Z" fill="#3AB67D"/>
<path d="M100.908 184.142C100.908 185.676 102.443 187.211 103.978 188.745C105.512 190.28 107.047 191.814 108.582 193.349C110.117 193.349 110.117 191.814 110.117 191.814C108.582 190.28 107.047 188.745 105.512 187.211C103.978 185.676 102.443 184.142 100.908 184.142Z" fill="#3AB67D"/>
<path d="M105.513 184.142C107.048 185.676 108.583 187.211 110.118 188.745C111.652 190.28 113.187 191.814 114.722 191.814C114.722 191.814 116.256 191.814 114.722 190.28L113.187 188.745C111.652 188.745 111.652 187.211 110.118 187.211C110.118 185.676 108.583 184.142 105.513 184.142C105.513 184.142 105.513 182.607 105.513 184.142Z" fill="#3AB67D"/>
<path d="M110.118 182.607C111.653 184.142 113.188 185.676 114.722 187.211C116.257 188.745 117.792 190.28 119.327 190.28C119.327 190.28 120.861 190.28 119.327 188.745C119.327 187.211 117.792 187.211 117.792 187.211C116.257 187.211 116.257 185.676 114.722 185.676C114.722 184.142 113.188 182.607 110.118 182.607Z" fill="#3AB67D"/>
<path d="M116.256 181.073C116.256 182.607 119.325 184.142 120.86 185.676C122.395 187.211 122.395 187.211 123.929 188.745C123.929 188.745 125.464 190.28 126.999 190.28C126.999 190.28 128.534 190.28 126.999 188.745C126.999 187.211 125.464 187.211 125.464 187.211C123.929 185.676 122.395 185.676 122.395 184.142C120.86 184.142 117.79 181.073 116.256 181.073Z" fill="#3AB67D"/>
<path d="M120.861 178.004C122.396 181.073 125.465 182.607 127 184.142C128.534 185.676 130.069 187.211 133.139 187.211C134.673 187.211 134.673 185.676 133.139 185.676C131.604 184.142 130.069 182.607 127 181.073C125.465 181.073 122.396 179.538 120.861 178.004Z" fill="#3AB67D"/>
<path d="M127 176.469C128.535 178.004 130.07 179.538 131.604 181.073C133.139 182.607 136.209 184.142 137.743 185.676C139.278 185.676 139.278 185.676 139.278 184.142C137.743 182.607 136.209 181.073 133.139 179.538C131.604 178.004 130.07 176.469 127 176.469C125.465 176.469 127 176.469 127 176.469Z" fill="#3AB67D"/>
<path d="M130.069 173.4C131.603 174.935 134.673 176.469 136.208 178.004C137.742 179.538 140.812 181.073 143.881 181.073C143.881 181.073 143.881 181.073 143.881 179.538C142.347 178.004 140.812 176.469 137.742 174.935C136.208 176.469 134.673 174.935 130.069 173.4Z" fill="#3AB67D"/>
<path d="M136.208 171.866C137.743 173.4 140.812 174.935 142.347 176.469C143.882 178.004 146.951 179.538 148.486 179.538V178.004C146.951 176.469 146.951 176.469 145.416 176.469C143.882 176.469 142.347 174.935 142.347 173.4C142.347 173.4 139.277 170.331 136.208 171.866C136.208 170.331 136.208 170.331 136.208 171.866Z" fill="#3AB67D"/>
<path d="M142.347 167.262C143.882 168.797 146.952 170.331 148.486 171.866C150.021 173.4 153.091 176.469 154.625 176.469C154.625 174.935 151.556 173.4 150.021 171.866C148.486 170.331 145.417 167.262 142.347 167.262Z" fill="#3AB67D"/>
<path d="M146.951 165.728L148.485 167.262C150.02 168.797 151.555 168.797 151.555 170.331C153.09 171.866 156.159 173.4 157.694 173.4C159.229 173.4 159.229 171.866 157.694 171.866C156.159 170.331 153.09 168.797 151.555 167.262C151.555 167.262 148.485 164.193 146.951 165.728Z" fill="#3AB67D"/>
<path d="M151.555 162.659C151.555 164.193 154.625 165.728 156.16 167.262C157.694 168.797 160.764 170.331 162.298 170.331C163.833 170.331 163.833 168.797 163.833 168.797C162.298 167.262 159.229 165.728 157.694 164.193C156.16 164.193 153.09 162.659 151.555 162.659Z" fill="#3AB67D"/>
<path d="M154.624 159.59C156.159 161.124 159.229 162.659 160.763 164.193C162.298 165.728 165.368 167.262 166.902 167.262C168.437 167.262 168.437 165.728 166.902 165.728C163.833 164.193 162.298 164.193 160.763 162.659C159.229 159.59 157.694 158.055 154.624 159.59Z" fill="#3AB67D"/>
<path d="M157.695 156.521C159.229 158.055 160.764 159.59 163.833 161.124C165.368 162.659 168.438 164.193 169.972 164.193C169.972 164.193 171.507 164.193 169.972 162.659C168.438 161.124 165.368 159.59 163.833 158.055C162.299 158.055 160.764 154.986 157.695 156.521C157.695 156.521 157.695 154.986 157.695 156.521Z" fill="#3AB67D"/>
<path d="M162.298 153.452C163.832 154.986 166.902 156.521 169.971 158.055C171.506 159.59 174.576 161.124 176.11 159.59C176.11 158.055 174.576 158.055 173.041 158.055C171.506 158.055 169.971 156.521 168.437 154.986C165.367 153.452 163.832 151.917 162.298 153.452Z" fill="#3AB67D"/>
<path d="M165.369 148.848C166.903 150.382 168.438 151.917 169.973 151.917C171.507 153.451 174.577 154.986 176.112 154.986C176.112 154.986 177.646 153.451 176.112 153.451C174.577 151.917 173.042 151.917 171.507 150.382C169.973 150.382 168.438 150.382 165.369 148.848Z" fill="#3AB67D"/>
<path d="M169.971 145.779C171.506 147.314 173.041 148.848 174.576 148.848C176.11 150.383 179.18 150.383 180.715 151.917C182.249 151.917 182.249 150.383 180.715 150.383C179.18 148.848 176.11 148.848 174.576 147.314C173.041 145.779 171.506 145.779 169.971 145.779Z" fill="#3AB67D"/>
<path d="M173.042 142.71C174.577 144.245 176.111 145.779 177.646 145.779C179.181 147.314 180.716 147.314 182.25 147.314C183.785 147.314 183.785 145.779 182.25 145.779C180.716 145.779 179.181 144.245 177.646 142.71C176.111 144.245 174.577 142.71 173.042 142.71Z" fill="#3AB67D"/>
<path d="M174.577 139.641C176.111 141.175 177.646 141.175 179.181 141.175C180.715 142.71 182.25 144.244 183.785 144.244C183.785 144.244 185.32 144.244 185.32 142.71C183.785 141.175 182.25 139.641 180.715 139.641C179.181 139.641 176.111 139.641 174.577 139.641Z" fill="#3AB67D"/>
<path d="M179.182 136.572C180.716 138.106 182.251 138.106 182.251 138.106C183.786 138.106 185.32 139.641 185.32 141.175C186.855 141.175 186.855 141.175 186.855 139.641C186.855 138.106 183.786 138.106 183.786 136.572C182.251 136.572 180.716 135.037 179.182 136.572Z" fill="#3AB67D"/>
<path d="M182.25 133.503C183.785 133.503 183.785 135.037 185.32 135.037C186.854 135.037 186.854 136.572 188.389 136.572C189.924 136.572 189.924 135.037 189.924 135.037C188.389 133.503 186.854 133.503 186.854 133.503C185.32 133.503 183.785 131.968 182.25 133.503C182.25 133.503 182.25 131.968 182.25 133.503Z" fill="#3AB67D"/>
<path d="M185.32 128.899L186.855 130.434C188.389 130.434 188.389 131.968 189.924 131.968C191.459 131.968 191.459 130.434 191.459 130.434C189.924 130.434 185.32 127.365 185.32 128.899C183.785 128.899 183.785 128.899 185.32 128.899Z" fill="#3AB67D"/>
<path d="M186.855 127.365C186.855 127.365 188.39 127.365 188.39 128.899C189.925 128.899 189.925 130.434 191.459 130.434C192.994 130.434 192.994 128.899 192.994 128.899C191.459 125.83 188.39 124.296 186.855 127.365C186.855 125.83 186.855 125.83 186.855 127.365Z" fill="#3AB67D"/>
<path d="M188.389 122.761L189.924 124.296L191.459 125.83C192.994 125.83 192.994 124.296 192.994 124.296C191.459 124.296 189.924 122.761 188.389 122.761Z" fill="#3AB67D"/>
<path d="M189.924 121.227L191.459 122.761L192.993 124.296C192.993 124.296 192.993 124.296 192.993 122.761C192.993 121.227 191.459 121.227 191.459 121.227C192.993 121.227 191.459 119.692 189.924 121.227Z" fill="#3AB67D"/>
<path d="M191.458 118.158C191.458 118.158 192.993 119.692 194.528 119.692C196.063 119.692 196.063 118.158 194.528 118.158C194.528 118.158 192.993 116.623 191.458 118.158C191.458 118.158 191.458 116.623 191.458 118.158Z" fill="#3AB67D"/>
<path d="M192.993 115.089C192.993 115.089 194.527 116.623 196.062 116.623C196.062 116.623 196.062 116.623 196.062 115.089C194.527 113.554 194.527 113.554 192.993 115.089Z" fill="#3AB67D"/>
<path d="M194.529 112.02C194.529 113.554 196.063 113.554 194.529 112.02C196.063 113.554 197.598 112.02 196.063 112.02C196.063 112.02 196.063 112.02 194.529 112.02Z" fill="#3AB67D"/>
<path d="M7.28967 65.9843C7.28967 67.5188 7.28965 69.0533 8.82437 69.0533C8.82437 69.0533 8.82441 69.0533 10.3591 69.0533C10.3591 67.5188 8.8244 65.9843 7.28967 65.9843C7.28967 65.9843 8.8244 65.9843 7.28967 65.9843Z" fill="#3AB67D"/>
<path d="M8.82385 64.4496C8.82385 65.9841 8.82389 65.9841 10.3586 67.5187C10.3586 67.5187 10.3586 67.5187 11.8933 67.5187V65.9841C11.8933 64.4496 10.3586 64.4496 8.82385 64.4496C8.82385 62.9151 8.82385 62.9151 8.82385 64.4496Z" fill="#3AB67D"/>
<path d="M10.3601 59.846C10.3601 61.3805 10.3601 61.3805 11.8948 62.915C11.8948 62.915 11.8949 64.4495 13.4296 64.4495C13.4296 64.4495 13.4296 64.4495 14.9644 64.4495C13.4296 61.3805 11.8949 59.846 10.3601 59.846C10.3601 59.846 10.3601 58.3115 10.3601 59.846Z" fill="#3AB67D"/>
<path d="M11.8948 56.777C11.8948 58.3115 13.4295 59.8461 13.4295 61.3806C13.4295 61.3806 14.9643 61.3806 14.9643 59.8461C14.9643 58.3115 13.4295 56.777 11.8948 56.777C10.36 56.777 11.8948 55.2425 11.8948 56.777Z" fill="#3AB67D"/>
<path d="M13.429 52.1735C13.429 53.708 14.9636 56.777 16.4984 56.777C16.4984 58.3115 18.0331 56.777 18.0331 55.2425C18.0331 55.2425 18.0331 53.708 16.4984 53.708C14.9636 53.708 14.9637 52.1735 13.429 52.1735Z" fill="#3AB67D"/>
<path d="M14.9633 47.57C14.9633 49.1045 16.498 52.1736 16.498 53.7081C18.0328 55.2426 19.5676 53.7081 18.0328 52.1736C18.0328 50.6391 16.498 50.6391 16.498 49.1045C16.498 49.1045 16.4981 49.1045 14.9633 47.57C14.9633 47.57 16.4981 47.57 14.9633 47.57Z" fill="#3AB67D"/>
<path d="M18.0338 44.501C18.0338 46.0355 19.5686 49.1046 21.1033 50.6391C22.638 50.6391 22.638 49.1046 22.638 49.1046C21.1033 49.1046 19.5685 46.0355 18.0338 44.501Z" fill="#3AB67D"/>
<path d="M19.5682 41.4319C19.5682 42.9664 21.103 44.5009 21.103 44.5009C21.103 46.0354 22.6376 47.5699 24.1724 47.5699H25.7072C25.7072 46.0354 24.1724 46.0354 24.1724 44.5009C22.6376 42.9664 21.1029 41.4319 19.5682 41.4319Z" fill="#3AB67D"/>
<path d="M21.1027 38.3627C21.1027 39.8973 22.6374 41.4318 22.6374 41.4318C22.6374 42.9663 24.1721 44.5008 25.7069 44.5008H27.2416C27.2416 42.9663 25.7069 41.4318 25.7069 41.4318C24.1721 39.8972 24.1721 38.3627 21.1027 38.3627C21.1027 38.3627 22.6374 36.8282 21.1027 38.3627Z" fill="#3AB67D"/>
<path d="M24.1714 33.7592C24.1714 36.8283 25.7061 39.8973 27.2409 41.4318C28.7756 42.9663 30.3104 41.4318 28.7757 39.8973C28.7757 38.3628 27.2409 38.3628 25.7062 36.8283C27.2409 35.2938 25.7061 35.2938 24.1714 33.7592C24.1714 33.7592 25.7061 33.7592 24.1714 33.7592Z" fill="#3AB67D"/>
<path d="M27.242 30.6902C27.242 32.2248 28.7767 33.7593 28.7767 35.2938C30.3115 36.8283 30.3114 38.3629 31.8461 39.8974C33.3809 41.4319 34.9156 39.8974 33.3809 38.3629C33.3809 36.8284 31.8462 35.2938 30.3114 33.7593C30.3114 32.2248 28.7767 30.6902 27.242 30.6902C25.7072 30.6902 27.242 30.6902 27.242 30.6902Z" fill="#3AB67D"/>
<path d="M28.7764 27.6212C28.7764 30.6903 31.8458 32.2248 33.3806 35.2938H34.9153V33.7593C34.9153 32.2248 33.3805 30.6903 31.8458 30.6903C33.3805 30.6903 31.8458 29.1558 28.7764 27.6212C28.7764 27.6212 30.3111 27.6212 28.7764 27.6212Z" fill="#3AB67D"/>
<path d="M33.3811 24.5523C33.3811 26.0868 33.3811 27.6213 34.9158 29.1558C36.4506 30.6904 36.4506 32.2249 37.9853 33.7594C39.52 35.2939 39.52 33.7594 39.52 32.2249C39.52 30.6903 37.9853 29.1558 36.4506 29.1558C36.4506 27.6213 34.9158 26.0868 33.3811 24.5523Z" fill="#3AB67D"/>
<path d="M36.4501 23.0178C36.4501 24.5523 37.9848 26.0868 39.5195 27.6213C41.0543 29.1558 41.0543 30.6903 42.589 32.2248C42.589 32.2248 44.1238 32.2248 44.1238 30.6903C44.1238 29.1558 42.589 27.6213 41.0543 26.0868C41.0543 24.5523 39.5196 23.0178 36.4501 23.0178C36.4501 23.0178 37.9849 21.4832 36.4501 23.0178Z" fill="#3AB67D"/>
<path d="M41.0549 19.9488C41.0549 21.4833 42.5896 23.0178 42.5896 24.5523C44.1243 26.0868 44.1243 27.6213 45.6591 29.1558C45.6591 29.1558 47.1938 29.1558 47.1938 27.6213C47.1938 26.0868 45.6591 24.5523 44.1244 23.0178C44.1244 21.4833 42.5896 19.9488 41.0549 19.9488Z" fill="#3AB67D"/>
<path d="M44.1237 16.8796C44.1237 18.4141 45.6584 19.9487 47.1931 21.4832C48.7279 23.0177 48.7279 24.5522 50.2627 26.0867C51.7974 26.0867 51.7975 26.0867 51.7975 24.5522C50.2627 23.0177 48.7279 21.4832 48.7279 19.9487C47.1932 19.9487 47.1932 18.4141 44.1237 16.8796Z" fill="#3AB67D"/>
<path d="M47.1925 13.8106C48.7273 15.3452 48.7273 16.8797 50.262 19.9487C50.262 21.4832 51.7968 23.0177 53.3315 23.0177C54.8663 24.5523 56.401 23.0177 54.8662 21.4832C53.3315 19.9487 53.3315 19.9487 53.3315 18.4142C51.7968 16.8797 50.262 15.3452 47.1925 13.8106C47.1925 13.8106 48.7273 13.8106 47.1925 13.8106Z" fill="#3AB67D"/>
<path d="M53.3317 12.2761C53.3317 13.8106 54.8665 15.3451 56.4012 16.8796C57.936 18.4141 57.936 19.9486 59.4707 21.4832C61.0055 21.4832 61.0054 21.4831 61.0054 19.9486C57.936 16.8796 56.4012 13.8106 53.3317 12.2761C53.3317 10.7416 53.3317 10.7416 53.3317 12.2761Z" fill="#3AB67D"/>
<path d="M57.9366 10.7415V12.276C57.9366 13.8105 59.4714 13.8105 59.4714 15.345C61.0062 16.8796 61.0061 18.4141 62.5409 19.9486C64.0756 21.4831 65.6104 18.4141 64.0757 18.4141C62.5409 16.8795 62.5409 15.345 61.0062 13.8105C61.0062 12.276 59.4714 10.7415 57.9366 10.7415Z" fill="#3AB67D"/>
<path d="M61.0054 9.20697C61.0054 10.7415 62.5402 12.276 64.0749 13.8105C65.6097 15.345 65.6097 16.8796 67.1444 18.4141C68.6792 18.4141 70.2139 16.8795 68.6792 16.8795C67.1444 15.345 67.1444 15.345 65.6097 13.8105L64.0749 12.276C64.0749 10.7415 62.5402 9.20697 61.0054 9.20697C62.5402 9.20697 62.5402 9.20697 61.0054 9.20697Z" fill="#3AB67D"/>
<path d="M65.6104 7.67248C65.6104 9.207 67.1451 12.276 68.6799 13.8105C70.2146 15.345 70.2146 16.8795 71.7494 16.8795C71.7494 16.8795 73.2841 16.8796 73.2841 15.345C73.2841 13.8105 71.7493 12.276 70.2146 12.276C70.2146 10.7415 68.6798 7.67248 65.6104 7.67248C65.6104 7.67248 67.1451 6.13797 65.6104 7.67248Z" fill="#3AB67D"/>
<path d="M71.7498 6.138C71.7498 7.67252 73.2845 9.20703 73.2845 10.7416C73.2845 12.2761 74.8193 13.8106 76.354 15.3451C76.354 16.8797 79.4235 15.3451 77.8887 13.8106C76.354 10.7416 74.8193 7.67252 71.7498 6.138C71.7498 6.138 71.7498 4.60348 71.7498 6.138Z" fill="#3AB67D"/>
<path d="M74.8184 4.60364C74.8184 6.13815 76.3531 7.67266 77.8879 9.20717C79.4226 10.7417 79.4226 12.2762 80.9574 13.8107C82.4921 15.3453 84.0269 13.8107 82.4922 12.2762C80.9574 10.7417 80.9574 9.20719 79.4227 6.13816C77.8879 6.13816 77.8879 4.60364 74.8184 4.60364Z" fill="#3AB67D"/>
<path d="M80.9579 4.60358C80.9579 6.1381 82.4926 7.6726 84.0274 9.20711C85.5621 10.7416 87.0968 13.8107 88.6316 13.8107C88.6316 13.8107 90.1664 13.8107 90.1664 12.2761C90.1664 10.7416 88.6316 9.20713 87.0969 7.67262C84.0274 6.13811 82.4926 4.60358 80.9579 4.60358C79.4231 3.06907 80.9579 3.06907 80.9579 4.60358Z" fill="#3AB67D"/>
<path d="M85.561 3.069C85.561 4.60351 87.0957 6.13805 88.6305 7.67256C90.1652 9.20707 90.1652 10.7416 91.6999 10.7416C93.2347 12.2761 94.7694 10.7416 93.2346 9.20705C93.2346 7.67254 91.7 6.13804 90.1652 6.13804C90.1652 6.13804 88.6304 3.069 85.561 3.069Z" fill="#3AB67D"/>
<path d="M91.7003 3.069C91.7003 4.60352 93.2351 6.13805 94.7698 7.67256C96.3045 9.20708 97.8393 10.7416 97.8393 12.2761C99.374 13.8106 100.909 12.2761 99.374 10.7416C97.8393 9.20706 97.8392 7.67256 96.3045 6.13804C94.7698 4.60353 93.2351 3.069 91.7003 3.069C91.7003 3.069 91.7003 1.53449 91.7003 3.069Z" fill="#3AB67D"/>
<path d="M97.8396 3.0691C97.8396 4.60361 99.3743 6.13814 99.3743 6.13814C100.909 7.67265 100.909 9.20715 102.444 9.20715C102.444 10.7417 103.979 9.20717 103.979 7.67266C103.979 6.13814 102.444 4.60361 102.444 3.0691C100.909 4.60361 100.909 3.0691 97.8396 3.0691C97.8396 1.53458 99.3743 1.53458 97.8396 3.0691Z" fill="#3AB67D"/>
<path d="M102.444 3.069C102.444 4.60352 103.979 6.13806 105.514 7.67257C105.514 7.67257 107.049 10.7416 108.583 10.7416C110.118 9.20707 107.049 7.67257 107.049 6.13805C107.049 4.60353 105.514 3.069 102.444 3.069C102.444 3.069 103.979 1.53448 102.444 3.069Z" fill="#3AB67D"/>
<path d="M108.582 3.06903C108.582 4.60355 110.117 6.13808 110.117 6.13808C111.652 7.6726 111.652 7.67258 111.652 9.2071C111.652 10.7416 114.721 9.20712 113.186 7.6726C113.186 6.13808 111.652 4.60355 110.117 4.60355C110.117 3.06903 110.117 1.53451 108.582 3.06903Z" fill="#3AB67D"/>
<path d="M113.187 3.06901C113.187 4.60352 114.722 4.60353 116.256 6.13805C116.256 7.67256 117.791 7.67255 117.791 9.20706C119.326 10.7416 120.861 9.20709 119.326 7.67257C119.326 6.13805 117.791 6.13804 117.791 4.60353C116.256 4.60353 114.722 1.53449 113.187 3.06901Z" fill="#3AB67D"/>
<path d="M117.792 3.069C117.792 4.60351 119.327 6.13803 119.327 6.13803C119.327 7.67254 120.862 9.20703 122.396 9.20703C123.931 10.7415 125.466 9.20705 123.931 7.67254C122.396 7.67254 122.396 6.13803 122.396 6.13803C120.862 4.60352 120.862 3.069 117.792 3.069C117.792 3.069 119.327 3.069 117.792 3.069Z" fill="#3AB67D"/>
<path d="M123.929 4.60351C123.929 6.13803 125.464 7.67253 126.999 9.20704C126.999 10.7416 130.068 9.20706 128.534 7.67255C128.534 6.13804 126.999 4.60351 123.929 4.60351C123.929 4.60351 123.929 3.069 123.929 4.60351Z" fill="#3AB67D"/>
<path d="M128.534 6.13807C128.534 7.67258 130.069 9.20707 131.604 10.7416C131.604 10.7416 133.139 10.7416 133.139 9.20707C133.139 7.67256 131.604 6.13807 128.534 6.13807C128.534 4.60356 130.069 4.60356 128.534 6.13807Z" fill="#3AB67D"/>
<path d="M133.139 7.67259C133.139 9.20711 134.674 10.7416 134.674 10.7416C136.209 12.2761 137.743 10.7416 136.209 9.20708C136.209 7.67256 134.674 7.67259 133.139 7.67259C133.139 6.13807 133.139 6.13807 133.139 7.67259Z" fill="#3AB67D"/>
<path d="M137.742 7.67249C137.742 9.20701 139.277 10.7415 140.812 10.7415C140.812 10.7415 142.347 10.7415 142.347 9.20699C140.812 9.20699 139.277 7.67249 137.742 7.67249Z" fill="#3AB67D"/>
<path d="M140.813 10.7416C140.813 12.2761 140.813 12.2761 142.348 13.8106H143.882V12.2761C143.882 10.7416 142.348 9.20707 140.813 10.7416C140.813 9.20707 140.813 9.20707 140.813 10.7416Z" fill="#3AB67D"/>
</g>
</svg>
