<svg width="18" height="18" viewBox="0 0 18 18" fill="none" xmlns="http://www.w3.org/2000/svg">
<g clip-path="url(#clip0_39_197)">
<path fill-rule="evenodd" clip-rule="evenodd" d="M1.5 4.12502C1.5 3.91791 1.66789 3.75002 1.875 3.75002H16.125C16.3321 3.75002 16.5 3.91791 16.5 4.12502C16.5 4.33212 16.3321 4.50002 16.125 4.50002H1.875C1.66789 4.50002 1.5 4.33212 1.5 4.12502Z" fill="#EB5757"/>
<path fill-rule="evenodd" clip-rule="evenodd" d="M4.125 3.75002C4.33211 3.75002 4.5 3.91791 4.5 4.12502V15.375C4.5 15.9929 5.00711 16.5 5.625 16.5H12.375C12.9929 16.5 13.5 15.9929 13.5 15.375V4.12502C13.5 3.91791 13.6679 3.75002 13.875 3.75002C14.0821 3.75002 14.25 3.91791 14.25 4.12502V15.375C14.25 16.4071 13.4071 17.25 12.375 17.25H5.625C4.59289 17.25 3.75 16.4071 3.75 15.375V4.12502C3.75 3.91791 3.91789 3.75002 4.125 3.75002Z" fill="#EB5757"/>
<path fill-rule="evenodd" clip-rule="evenodd" d="M5.25 2.62502C5.25 1.59291 6.09289 0.750015 7.125 0.750015H10.875C11.9071 0.750015 12.75 1.59291 12.75 2.62502V4.12502C12.75 4.33212 12.5821 4.50002 12.375 4.50002C12.1679 4.50002 12 4.33212 12 4.12502V2.62502C12 2.00712 11.4929 1.50002 10.875 1.50002H7.125C6.50711 1.50002 6 2.00712 6 2.62502V4.12502C6 4.33212 5.83211 4.50002 5.625 4.50002C5.41789 4.50002 5.25 4.33212 5.25 4.12502V2.62502Z" fill="#EB5757"/>
<path fill-rule="evenodd" clip-rule="evenodd" d="M7.125 6.75002C7.33211 6.75002 7.5 6.91791 7.5 7.12502V13.875C7.5 14.0821 7.33211 14.25 7.125 14.25C6.91789 14.25 6.75 14.0821 6.75 13.875V7.12502C6.75 6.91791 6.91789 6.75002 7.125 6.75002Z" fill="#EB5757"/>
<path fill-rule="evenodd" clip-rule="evenodd" d="M10.875 6.75002C11.0821 6.75002 11.25 6.91791 11.25 7.12502V13.875C11.25 14.0821 11.0821 14.25 10.875 14.25C10.6679 14.25 10.5 14.0821 10.5 13.875V7.12502C10.5 6.91791 10.6679 6.75002 10.875 6.75002Z" fill="#EB5757"/>
</g>
<defs>
<clipPath id="clip0_39_197">
<rect width="18" height="18" fill="white"/>
</clipPath>
</defs>
</svg>
